<?xml version="1.0" encoding="UTF-8"?>
<svg id="Layer_1" xmlns="http://www.w3.org/2000/svg" version="1.1" viewBox="0 0 610 610">
  <!-- Generator: Adobe Illustrator 29.5.1, SVG Export Plug-In . SVG Version: 2.1.0 Build 141)  -->
  <defs>
    <style>
      .st0 {
        fill: #68bcd9;
      }

      .st1 {
        fill: #ed70b0;
      }

      .st2 {
        fill: #c4e5e4;
      }
    </style>
  </defs>
  <path class="st0" d="M501.9,431.5c-48.1,46.7-96.7,93-144.5,140.1-7.6,6.6-21,1.4-21.7-8.7-.2-3.5,1.1-7.6,1.9-11.1,17.5-77.9,40.6-154.7,58.5-232.6l.8-1.4,138.8,80.1c.6.4-.3.8-.6,1.1-3.8,5.1-11.2,10.7-15.8,15.2-5.8,5.7-11.5,11.6-17.4,17.3Z"/>
  <path class="st2" d="M573.6,378.5c-6.3,6.4-16.1,11.8-25.2,11.2l-150.5-87c-9-12.9-4-32.9,5.8-44.2,3.6-4.2,15.8-13.3,21.3-11.7s15.8,15.8,18.5,18.3c38.7,35.7,88,61,139.3,72.8,6.9,13.2.6,30.7-9.2,40.7Z"/>
  <path class="st2" d="M461.9,205.1c3.2-.5,8.6-.5,11.4,1.3,31.8,36.1,74.6,60,121.6,70.2,12,11.1,7.2,31.1-2.3,42.3-1.5,1.8-5,5.8-7.3,5.6-4.8-.3-15.8-4-21-5.6-49.1-15-94.1-43.4-128.9-80.9-1.4-2.4,1.1-8.8,2.2-11.4,3.8-9,14.2-19.9,24.2-21.5Z"/>
  <path class="st1" d="M532.6,50.4l4.8-7.3c16.6-15.9,43.2-5.1,44.9,17.8,1.4,18.6-10.6,28-23.4,38.7s-17.1,13.6-25.9,19.8c-1.4,0-20.4-15.3-23.1-17.5-15.3-12.5-32.2-25.3-24.8-47.9s38.9-25.4,47.7-3.4Z"/>
  <path class="st2" d="M594.6,261.9c-32.7-6.6-64.2-22.1-89.6-43.6-4.1-3.5-9.5-8.3-13.3-12.1s-5.5-5.9-5.6-6.2c-.7-1.6,2.1-5.2,3.1-6.5,3.2-4,8.4-8.1,13.2-9.9,16.7-6.3,21,6.3,31.3,15.5,11.9,10.6,26.4,18.3,41.8,22.6,8.3,2.3,16.8,1.7,21.5,10.6s2.3,20.4-2.4,29.7Z"/>
  <path class="st2" d="M596.9,146.3c2.3,21.3-1.8,44.8-13.5,62.9-13.2-3.2-26.2-9.3-36.9-17.8s-9.1-7.8-9.6-9c-.8-1.9,2.5-7,3.8-8.6,6.6-8.1,18.7-8.7,28.1-11.4,11.1-3.2,20.1-7.7,28.2-16.1Z"/>
</svg>