<?xml version="1.0" encoding="UTF-8"?>
<svg id="Layer_2" data-name="Layer 2" xmlns="http://www.w3.org/2000/svg" viewBox="0 0 33.16 33.16">
  <defs>
    <style>
      .cls-1 {
        fill: #42bfdd;
      }
    </style>
  </defs>
  <g id="ELEMENTS">
    <path class="cls-1" d="M16.58,0C7.42,0,0,7.42,0,16.58s7.42,16.58,16.58,16.58,16.58-7.42,16.58-16.58S25.74,0,16.58,0ZM13.58,6.73c2.29,0,4.14,1.85,4.14,4.14s-1.85,4.14-4.14,4.14-4.14-1.86-4.14-4.14,1.85-4.14,4.14-4.14ZM19.25,26.43H7.91c-1.11,0-2.01-.9-2.01-2.01,0-4.25,3.44-7.69,7.68-7.69s7.68,3.44,7.68,7.69c0,1.11-.9,2.01-2.01,2.01ZM29.6,16.09h-4.32v4.23c0,.6-.49,1.09-1.1,1.09s-1.11-.49-1.11-1.09v-4.23h-4.31c-.62,0-1.11-.48-1.11-1.08s.49-1.09,1.11-1.09h4.31v-4.23c0-.59.5-1.08,1.11-1.08s1.1.49,1.1,1.08v4.23h4.32c.61,0,1.1.49,1.1,1.09s-.49,1.08-1.1,1.08Z"/>
  </g>
</svg>