<?xml version="1.0" encoding="UTF-8"?>
<svg id="Layer_1" data-name="Layer 1" xmlns="http://www.w3.org/2000/svg" viewBox="0 0 610 610">
  <defs>
    <style>
      .cls-1 {
        fill: #68bcd9;
      }

      .cls-2 {
        fill: #ed70b0;
      }

      .cls-3 {
        fill: #c4e5e4;
      }
    </style>
  </defs>
  <path class="cls-1" d="M171.88,431.54c-48.12,46.75-96.7,93.04-144.51,140.11-7.6,6.59-21.04,1.39-21.73-8.71-.24-3.5,1.1-7.65,1.88-11.14,17.51-77.91,40.63-154.74,58.51-232.59l.84-1.4,138.79,80.09c.55.43-.3.77-.57,1.13-3.83,5.08-11.16,10.67-15.81,15.22-5.85,5.71-11.54,11.59-17.4,17.29Z"/>
  <path class="cls-1" d="M578.51,567.48l-174.55-169.29,139.06-80.37,61.14,241.79c2.17,10.88-11.28,19.13-20.2,12.87-1.96-1.38-3.28-3.78-5.44-5Z"/>
  <path class="cls-3" d="M243.54,378.53c-6.28,6.44-16.05,11.85-25.22,11.22l-150.46-87.04c-9.04-12.91-3.98-32.86,5.78-44.15,3.6-4.17,15.77-13.34,21.32-11.75,1.34.38,15.83,15.82,18.45,18.25,38.67,35.7,88.02,61.03,139.35,72.77,6.89,13.15.57,30.66-9.22,40.7Z"/>
  <path class="cls-3" d="M514.92,246.81c24.24,3.08,39.33,34.76,27.55,55.77l-150.9,87.17c-17.82,1.38-35.68-18.14-37.25-35.01-.3-3.19-.05-14.15,2.25-16.35.89-.86,20.47-5.62,23.81-6.65,51.58-15.99,97.69-45.73,134.54-84.93Z"/>
  <path class="cls-3" d="M459.45,213.64c3.42-3.39,6.31-8.15,11.36-8.67,17.47-1.8,32.49,16.07,34.04,32.3-36.89,39.94-85.81,70.25-138.58,84.31-2.51.67-11.99,3.47-13.65,2.7-3.99-1.86-10.83-12.66-12.44-16.91-3.19-8.44-4.18-27.84,6.32-31.5,5.46-1.9,12.68-2.88,18.51-4.62,37.63-11.22,66.83-30.29,94.43-57.61Z"/>
  <path class="cls-3" d="M131.89,205.1c3.23-.5,8.62-.51,11.4,1.3,31.82,36.06,74.6,60.03,121.62,70.19,11.98,11.15,7.25,31.09-2.27,42.33-1.49,1.76-5.05,5.76-7.26,5.61-4.81-.32-15.84-4.04-20.97-5.61-49.09-15.04-94.07-43.43-128.92-80.93-1.4-2.41,1.08-8.83,2.18-11.42,3.83-9,14.19-19.92,24.21-21.48Z"/>
  <path class="cls-2" d="M407.33,50.39c6.73-19.07,34.03-19.48,44.47-3,16.24,25.63-9.11,44.33-26.72,58.27-5.89,4.66-11.84,9.29-18.02,13.57-1.77,0-25.04-18.78-28.2-21.46-14.03-11.87-26.72-24.15-19.63-44.42,6.13-17.53,29.52-24.34,42.77-10.87,2.27,2.31,3.26,5.58,5.33,7.92Z"/>
  <path class="cls-2" d="M202.56,50.39l4.78-7.34c16.65-15.95,43.18-5.09,44.88,17.75,1.38,18.59-10.64,27.99-23.45,38.65-8.33,6.93-17.06,13.55-25.94,19.75-1.45,0-20.43-15.28-23.12-17.49-15.27-12.54-32.16-25.32-24.81-47.92,7.18-22.07,38.85-25.39,47.65-3.41Z"/>
  <path class="cls-3" d="M345.35,261.88c-6.96-12.6-8.5-33.18,8.39-38.02,21.83-6.25,34.41-8.77,52.17-24.55,10.09-8.97,15-21.81,31.31-16.05,7.21,2.54,13.29,9.19,17.24,15.52.63,1.73-17.76,18.12-20.35,20.28-25.43,21.2-56.18,36.38-88.77,42.82Z"/>
  <path class="cls-3" d="M264.54,261.88c-32.75-6.55-64.23-22.09-89.64-43.65-4.13-3.5-9.54-8.28-13.27-12.11-.76-.78-5.46-5.87-5.64-6.25-.71-1.55,2.08-5.15,3.13-6.46,3.23-4.02,8.39-8.08,13.23-9.9,16.67-6.27,21.02,6.31,31.31,15.53,11.85,10.62,26.42,18.3,41.75,22.56,8.32,2.31,16.81,1.73,21.54,10.61,5.2,9.75,2.33,20.42-2.43,29.65Z"/>
  <path class="cls-3" d="M344.14,145.74c.07.06.25,1.1.82,1.7,7.85,8.24,16.48,12.02,27.28,15.06,12.72,3.59,27.2,3.88,31.45,19.35-12.53,13.57-29.17,23.07-47.14,27.38-11.48-18.72-15.68-41.43-13.53-63.21l1.12-.28Z"/>
  <path class="cls-3" d="M266.86,146.3c2.29,21.35-1.83,44.76-13.54,62.94-13.23-3.17-26.2-9.28-36.93-17.82-1.6-1.28-9.06-7.77-9.63-9.03-.84-1.87,2.47-7.01,3.78-8.62,6.63-8.1,18.75-8.7,28.11-11.38,11.11-3.18,20.11-7.68,28.2-16.08Z"/>
</svg>