<?xml version="1.0" encoding="UTF-8"?>
<svg id="Layer_2" data-name="Layer 2" xmlns="http://www.w3.org/2000/svg" viewBox="0 0 33.16 33.16">
  <defs>
    <style>
      .cls-1 {
        fill: #ff66b3;
      }
    </style>
  </defs>
  <g id="ELEMENTS">
    <path class="cls-1" d="M16.58,0C7.42,0,0,7.42,0,16.58s7.42,16.58,16.58,16.58,16.58-7.42,16.58-16.58S25.74,0,16.58,0ZM24.31,22.27c0,2.22-1.8,4.03-4.03,4.03h-7.27c-2.22,0-4.03-1.8-4.03-4.03v-3.31h15.32v3.31ZM25.09,16.6H8.22c-.49,0-.76-.58-.43-.95l6.87-7.87c1.06-1.21,2.94-1.21,3.99,0l6.87,7.87c.32.37.06.95-.43.95Z"/>
  </g>
</svg>