<?xml version="1.0" encoding="UTF-8"?>
<svg id="Layer_2" data-name="Layer 2" xmlns="http://www.w3.org/2000/svg" viewBox="0 0 350.91 321.1">
  <defs>
    <style>
      .cls-1 {
        fill: #ec2a73;
      }

      .cls-2 {
        fill: #bc1559;
      }

      .cls-3 {
        fill: #14014f;
      }

      .cls-4 {
        fill: #ff9717;
      }

      .cls-5 {
        fill: #ea6ca0;
      }

      .cls-6 {
        fill: #fff;
      }

      .cls-7 {
        fill: #42bfdd;
      }

      .cls-8 {
        fill: #fac25d;
      }

      .cls-9 {
        fill: #084b83;
      }
    </style>
  </defs>
  <g id="OBJECTS">
    <path class="cls-7" d="M296.17,257.75c17.55-24.4,27.89-54.33,27.89-86.67,0-82.07-66.53-148.61-148.61-148.61S26.85,89.01,26.85,171.08c0,32.35,10.34,62.28,27.89,86.67h241.43Z"/>
    <g>
      <g>
        <circle class="cls-1" cx="175.57" cy="120.43" r="72.07" transform="translate(-33.73 159.42) rotate(-45)"/>
        <path class="cls-8" d="M110.49,182.86l50.24,121.3c4.76,12.91,22.98,12.99,27.86.13l51.55-120.8-129.65-.63Z"/>
        <path class="cls-8" d="M241.93,186.83l-133.26-.64c-2.67-.01-4.89-2.01-5.11-4.6l-2.33-27.44c-.25-2.93,2.14-5.44,5.16-5.42l138.19.67c3.02.01,5.38,2.54,5.1,5.47l-2.6,27.42c-.25,2.59-2.48,4.56-5.15,4.55Z"/>
        <polygon class="cls-4" points="238.5 187.32 113.09 189.14 111.87 186.2 238.73 186.81 238.5 187.32"/>
        <path class="cls-1" d="M129.31,170.08h0c-3.8,0-6.89-3.08-6.89-6.89v-16.56c0-3.8,3.08-6.89,6.89-6.89h0c3.8,0,6.89,3.08,6.89,6.89v16.56c0,3.8-3.08,6.89-6.89,6.89Z"/>
        <path class="cls-1" d="M156.85,139.74h0c3.8,0,6.89,3.09,6.89,6.89v54.03c0,3.8-3.09,6.89-6.89,6.89h0c-3.8,0-6.89-3.09-6.89-6.89v-54.03c0-3.8,3.09-6.89,6.89-6.89Z"/>
        <path class="cls-1" d="M143.08,140.79c-3.8,0-6.89,3.08-6.89,6.89v8.98c0-3.8,3.08-6.89,6.89-6.89s6.89,3.08,6.89,6.89v-8.98c0-3.8-3.08-6.89-6.89-6.89Z"/>
        <path class="cls-1" d="M220.4,170.08h0c-3.8,0-6.89-3.08-6.89-6.89v-16.56c0-3.8,3.08-6.89,6.89-6.89h0c3.8,0,6.89,3.08,6.89,6.89v16.56c0,3.8-3.08,6.89-6.89,6.89Z"/>
        <path class="cls-1" d="M220.4,192.74h0c-3.8,0-6.89-3.08-6.89-6.89v-2.82c0-3.8,3.08-6.89,6.89-6.89h0c3.8,0,6.89,3.08,6.89,6.89v2.82c0,3.8-3.08,6.89-6.89,6.89Z"/>
        <path class="cls-1" d="M184.53,157.86h0c-3.8,0-6.89-3.08-6.89-6.89v-11.07c0-3.8,3.08-6.89,6.89-6.89h0c3.8,0,6.89,3.08,6.89,6.89v11.07c0,3.8-3.08,6.89-6.89,6.89Z"/>
        <path class="cls-5" d="M196.56,55.67c6.49,2.11,11.12,5.77,10.34,8.18-.78,2.41-6.68,2.64-13.17.53-6.49-2.11-11.12-5.77-10.34-8.18.78-2.41,6.68-2.64,13.17-.53Z"/>
      </g>
      <g>
        <g>
          <path class="cls-3" d="M186.39,73.84c-1.02.32-7.2,1.83-10.94,1.83s-9.92-1.51-10.94-1.83c-29.04-8.93-56.82,0-56.82,0v7.59c1.68,1.12,2.86,2.85,3.28,4.82l2.03,9.48s3.43,21.83,24.98,20.95c23.71.03,30.96-30.56,30.96-30.56.65-2.9,4.44-3.21,6.51-3.26,2.06.04,5.85.36,6.51,3.26,0,0,7.25,30.58,30.96,30.56,21.56.87,24.98-20.95,24.98-20.95l2.03-9.48c.42-1.97,1.6-3.7,3.28-4.82h0v-7.59s-27.78-8.93-56.82,0Z"/>
          <path class="cls-3" d="M138.36,73.63c11.05,0,22.36,2.48,24.68,6.58,2.32,4.1-3.16,23.88-12.56,29.38-9.1,5.44-21.26,4.67-26.73-1.01-7.49-7.39-9.03-25.22-7.12-29.38,1.91-4.16,10.68-5.57,21.73-5.57Z"/>
          <path class="cls-3" d="M212.55,73.63c-11.05,0-22.36,2.48-24.68,6.58-2.32,4.1,3.16,23.88,12.56,29.38,9.1,5.44,21.26,4.67,26.73-1.01,7.49-7.39,9.03-25.22,7.12-29.38-1.91-4.16-10.68-5.57-21.73-5.57Z"/>
        </g>
        <path class="cls-2" d="M175.45,134.84c-14.27,0-25.14-4.59-30.72-7.59,3.76,2.55,15,9.14,30.72,9.14s26.96-6.59,30.72-9.14c-5.58,3-16.45,7.59-30.72,7.59Z"/>
        <path class="cls-2" d="M165.19,100.54c0,5.67,4.6,10.26,10.26,10.26s10.26-4.6,10.26-10.26c-7.19-1.02-14.01-.97-20.53,0Z"/>
        <path class="cls-6" d="M168.31,101.17s.54,2.53,1.67,3.12c1.13.59,9.86.5,10.78.14.92-.36,1.83-3.27,1.83-3.27-4.92-.48-9.68-.48-14.28,0Z"/>
        <path class="cls-2" d="M180.04,92.21c-1.06-1.6-2.71-2.48-4.55-2.48-1.77.02-3.4.94-4.36,2.46l-.85-.53c1.14-1.81,3.08-2.91,5.19-2.93h.08c2.12,0,4.1,1.09,5.32,2.92l-.83.55Z"/>
      </g>
    </g>
    <g>
      <polygon class="cls-6" points="63.54 148.09 76.31 151.35 63.54 154.61 60.28 165.35 57.01 154.61 45.42 151.35 57.01 148.09 60.28 137.57 63.54 148.09"/>
      <polygon class="cls-6" points="266.67 205.82 279.44 209.08 266.67 212.35 263.41 223.09 260.14 212.35 248.55 209.08 260.14 205.82 263.41 195.3 266.67 205.82"/>
      <polygon class="cls-6" points="77.63 131.34 83.95 132.96 77.63 134.57 76.02 139.89 74.41 134.57 68.67 132.96 74.41 131.34 76.02 126.14 77.63 131.34"/>
      <polygon class="cls-6" points="288.41 188.74 294.73 190.36 288.41 191.97 286.79 197.29 285.18 191.97 279.44 190.36 285.18 188.74 286.79 183.54 288.41 188.74"/>
      <polygon class="cls-6" points="93.47 67.27 99.79 68.88 93.47 70.5 91.86 75.81 90.24 70.5 84.51 68.88 90.24 67.27 91.86 62.06 93.47 67.27"/>
      <polygon class="cls-6" points="223.14 46.46 227.3 47.52 223.14 48.59 222.08 52.09 221.01 48.59 217.24 47.52 221.01 46.46 222.08 43.04 223.14 46.46"/>
      <polygon class="cls-6" points="291.77 119.33 295.93 120.39 291.77 121.46 290.71 124.96 289.65 121.46 285.87 120.39 289.65 119.33 290.71 115.91 291.77 119.33"/>
      <polygon class="cls-6" points="267.47 139.69 271.63 140.75 267.47 141.81 266.41 145.31 265.35 141.81 261.57 140.75 265.35 139.69 266.41 136.26 267.47 139.69"/>
      <polygon class="cls-6" points="66.77 212.62 70.93 213.68 66.77 214.75 65.7 218.24 64.64 214.75 60.87 213.68 64.64 212.62 65.7 209.2 66.77 212.62"/>
      <polygon class="cls-6" points="263.36 97.54 271.89 99.71 263.36 101.89 261.18 109.07 259 101.89 251.26 99.71 259 97.54 261.18 90.51 263.36 97.54"/>
      <polygon class="cls-6" points="110.17 216.57 116.49 218.19 110.17 219.8 108.56 225.12 106.94 219.8 101.21 218.19 106.94 216.57 108.56 211.37 110.17 216.57"/>
    </g>
    <path class="cls-1" d="M324.67,321.1c-94.13-46.11-204.3-46.11-298.43,0-4.38-8.94,6.47-24.65,2.09-33.59-4.37-8.92-23.97-11.06-28.33-19.97,110.69-54.22,240.22-54.22,350.91,0-4.32,8.81-23.7,10.45-28.02,19.26-4.43,9.04,6.21,25.26,1.78,34.3Z"/>
    <circle class="cls-1" cx="39.43" cy="81.22" r="3.66"/>
    <circle class="cls-1" cx="311.48" cy="81.22" r="3.66"/>
  </g>
  <g id="TEXT">
    <g>
      <path class="cls-9" d="M44.47,63.08l7.13-8.35,1.82,1.56-2.59,3.04,9.45,8.06-1.95,2.28-9.45-8.06-2.59,3.04-1.83-1.56Z"/>
      <path class="cls-9" d="M69.68,48.89l-4.7,4.36,4.29,4.62-2.2,2.04-10.07-10.86,2.2-2.04,4.14,4.47,4.7-4.36-4.14-4.47,2.2-2.04,10.07,10.86-2.2,2.04-4.29-4.62Z"/>
      <path class="cls-9" d="M81.16,32.03l-4.58,3.37,2.2,2.99,4.06-2.99,1.4,1.9-4.06,2.99,2.33,3.16,4.58-3.37,1.43,1.95-7,5.15-8.8-11.94,7-5.15,1.43,1.95Z"/>
      <path class="cls-9" d="M101.41,17.15c2.98-1.47,6.19-1.09,8.43,1.18l-3.1,1.53c-1.26-.96-2.73-1.02-4.17-.31-2.35,1.16-3.18,3.68-1.85,6.38,1.32,2.68,3.84,3.57,6.19,2.41,1.44-.71,2.29-1.91,2.28-3.52l3.1-1.53c.45,3.19-1.2,5.94-4.19,7.42-3.87,1.91-8.19.57-10.16-3.41s-.41-8.25,3.46-10.16Z"/>
      <path class="cls-9" d="M126.92,22.98c-4.01,1.35-8.28-.52-9.7-4.75-1.42-4.2.85-8.28,4.86-9.63,4.05-1.36,8.26.53,9.68,4.73,1.42,4.22-.81,8.29-4.83,9.65ZM126.07,20.46c2.56-.86,3.71-3.29,2.75-6.14-.96-2.86-3.33-4.05-5.9-3.19-2.58.87-3.75,3.26-2.79,6.11.96,2.86,3.35,4.09,5.93,3.22Z"/>
      <path class="cls-9" d="M146.84,17.74c-4.15.8-8.14-1.64-8.98-6.02-.84-4.36,1.97-8.09,6.12-8.89,4.19-.8,8.11,1.64,8.95,6,.84,4.38-1.92,8.11-6.09,8.91ZM146.34,15.13c2.66-.51,4.12-2.76,3.56-5.72-.57-2.96-2.76-4.46-5.41-3.95-2.68.51-4.15,2.72-3.59,5.68.57,2.96,2.77,4.5,5.44,3.99Z"/>
      <path class="cls-9" d="M162.31.58l.94,12.42,4.92-.37.18,2.35-7.91.6-1.11-14.77,2.99-.23Z"/>
      <path class="cls-9" d="M183.14,2.6l-5.68-.12-.08,3.71,5.04.1-.05,2.36-5.04-.1-.08,3.93,5.69.12-.05,2.42-8.69-.18.3-14.83,8.69.18-.05,2.42Z"/>
      <path class="cls-9" d="M194.65,16.28c-3.09-.39-5.27-2.3-4.96-5.08l3.19.41c-.06,1.19.62,2.07,2.01,2.25,1.4.18,2.33-.45,2.46-1.5.4-3.18-7.5-2.24-6.8-7.56.34-2.65,2.71-3.97,5.78-3.58,3.04.39,4.93,2.19,4.79,4.87l-3.28-.42c.06-.98-.63-1.83-1.91-2.02-1.17-.19-2.11.26-2.26,1.46-.37,2.95,7.45,2.28,6.8,7.45-.29,2.32-2.43,4.16-5.82,3.73Z"/>
      <path class="cls-9" d="M209.01,3.4l10.68,2.59-.57,2.33-3.88-.94-2.93,12.07-2.92-.71,2.93-12.07-3.88-.94.57-2.33Z"/>
      <path class="cls-9" d="M238.02,22.11l-2.31-.98-2.23,5.23-2.76-1.18,5.8-13.63,5.07,2.16c3.32,1.41,4.18,3.97,3.18,6.34-.88,2.07-3.2,3.57-6.75,2.06ZM238.84,19.86c1.56.67,2.57.2,3.09-1.01.53-1.25.16-2.29-1.4-2.95l-2.19-.93-1.69,3.96,2.19.93Z"/>
      <path class="cls-9" d="M255.94,20.71l-6.01,10.91,4.32,2.38-1.14,2.06-6.95-3.83,7.15-12.97,2.63,1.45Z"/>
      <path class="cls-9" d="M267.22,42.03l-4.88-3.43-2.43,1.74-2.58-1.81,12.94-9.04,2.86,2.01-4.12,15.23-2.6-1.83.82-2.88ZM269.72,33.3l-5.34,3.82,3.55,2.49,1.79-6.32Z"/>
      <path class="cls-9" d="M288.75,44.03c2.45,2.25,3.25,5.37,1.94,8.29l-2.54-2.34c.44-1.53-.03-2.91-1.22-4-1.93-1.77-4.58-1.64-6.62.58-2.03,2.2-1.94,4.87-.02,6.64,1.18,1.09,2.61,1.44,4.1.86l2.54,2.34c-2.81,1.57-5.98,1.02-8.43-1.23-3.17-2.92-3.48-7.43-.48-10.7,3-3.27,7.54-3.36,10.72-.44Z"/>
      <path class="cls-9" d="M303.23,63.08l-3.71-4.31-2.81,2.42,3.29,3.82-1.78,1.54-3.29-3.82-2.97,2.56,3.71,4.31-1.83,1.58-5.67-6.58,11.23-9.68,5.67,6.58-1.83,1.58Z"/>
    </g>
    <g>
      <path class="cls-6" d="M49.4,293.29c-1.84.86-3.61,1.61-5.32,2.23-1.71.62-2.85.94-3.42.93-.57,0-.94-.22-1.1-.64-3.36-8.9-6.72-17.79-10.08-26.69-.28-.73-.06-1.4.65-2.02.71-.62,2.21-1.36,4.51-2.19,5.92-2.14,11.88-4.13,17.88-5.99.68-.21,1.35.77,2.02,2.93.67,2.17,1.02,3.86,1.07,5.09.05,1.23-.16,1.91-.63,2.06-3.24.85-6.48,1.75-9.7,2.69.33.97.66,1.93.98,2.9,4.08-1.57,6.84-2.54,8.24-2.98.47-.15.86-.02,1.18.39.31.4.68,1.26,1.08,2.56.41,1.3.64,2.6.7,3.88.06,1.28-.18,2.01-.73,2.19-2.56.72-5.12,1.46-7.67,2.23.96,2.84,1.93,5.68,2.89,8.52.14.43-.71,1.06-2.55,1.92Z"/>
      <path class="cls-6" d="M78.34,283.45c.1.38-.74.92-2.52,1.64-1.77.73-3.58,1.35-5.42,1.88-1.84.53-3.05.78-3.64.73-.58-.05-.94-.28-1.07-.71-2.75-9.24-5.51-18.49-8.26-27.73-.22-.75.68-1.6,2.71-2.53,2.03-.93,4.68-1.85,7.94-2.73,3.26-.87,5.38-1.39,6.35-1.62.97-.23,2.12-.46,3.45-.69,1.33-.23,2.41-.33,3.22-.3.82.02,1.73.09,2.74.2,1.01.11,1.83.37,2.46.76.64.4,1.28.89,1.92,1.49,1.15,1.07,1.97,2.77,2.47,5.11.5,2.33.5,4.39,0,6.17-.49,1.78-1.33,3.23-2.52,4.36,4.79,4.49,7.24,7.51,7.55,8.94.3,1.45-2.54,2.76-8.5,4.17-1.72.41-2.93.63-3.63.65-.7.02-1.2-.19-1.51-.65-1.73-2.75-3.49-5.49-5.27-8.22-.27.05-.53.11-.8.16.78,2.98,1.55,5.95,2.33,8.93ZM74.26,267.82c.41-.11.82-.21,1.23-.32,1.82-.47,2.41-2,1.76-4.63-.33-1.34-.82-2.22-1.46-2.65-.64-.43-1.28-.56-1.92-.39-.53.14-1.06.27-1.59.41.66,2.53,1.32,5.05,1.98,7.58Z"/>
      <path class="cls-6" d="M113.97,277.66c-2.54.41-4.74.56-6.64.43-1.9-.13-3.72-.63-5.48-1.51-3.54-1.72-6.04-5.84-7.41-12.42-.57-2.76-.64-5.26-.17-7.5.47-2.24,1.39-4.12,2.75-5.64,2.68-2.97,6.6-4.91,11.67-5.74,2.62-.43,4.93-.57,6.93-.43,2,.13,3.94.64,5.8,1.51,3.77,1.8,6,5.93,6.75,12.3.68,5.72-.32,10.11-2.9,13.2-2.59,3.09-6.33,4.99-11.3,5.8ZM111.19,270.29c.45.37.99.5,1.65.39.65-.11,1.13-.4,1.44-.89.31-.49.47-1.46.5-2.9.03-1.45-.15-3.43-.54-5.95-.39-2.52-.82-4.44-1.29-5.76-.47-1.32-.94-2.16-1.39-2.51-.46-.35-1.03-.47-1.71-.36-.68.11-1.19.41-1.51.89-.32.48-.5,1.42-.52,2.83-.03,1.4.18,3.36.6,5.88.43,2.51.89,4.45,1.38,5.81.49,1.36.96,2.23,1.4,2.59Z"/>
      <path class="cls-6" d="M156.54,270.84c-.9.71-2.16,1.32-3.78,1.85-1.62.53-3.73.89-6.33,1.09-2.6.2-5.08.2-7.46.01-2.38-.19-4.11-.47-5.18-.87-1.07-.39-1.64-.83-1.69-1.31-.19-1.67-.14-3.43.16-5.29.3-1.86.8-2.83,1.5-2.9.13-.01,1.48.24,4.06.81,2.57.57,4.47.81,5.73.71,1.26-.1,2.07-.29,2.43-.58.36-.28.52-.66.49-1.14-.04-.48-.42-.88-1.14-1.2-.73-.32-1.63-.58-2.7-.78-1.07-.2-2.25-.51-3.52-.93-1.28-.42-2.48-.91-3.6-1.46-1.12-.55-2.1-1.39-2.94-2.52-.84-1.13-1.35-2.47-1.52-4.02-.76-6.6,3.29-10.47,12.16-11.18,3.31-.26,6.18-.26,8.6-.02,2.42.24,4.14.58,5.14,1,1,.42,1.51.86,1.53,1.31.07,1.56-.27,3.25-1,5.09-.72,1.83-1.45,2.77-2.2,2.81-.13,0-.56-.11-1.29-.34-2.2-.75-4.02-1.07-5.44-.98-1.42.1-2.38.29-2.87.56-.49.28-.71.66-.68,1.16.04.49.43.87,1.16,1.13.74.26,1.64.48,2.71.67,1.07.18,2.24.5,3.52.95,1.27.45,2.46,1.01,3.56,1.66,1.1.65,2.02,1.61,2.78,2.87.76,1.26,1.17,2.74,1.23,4.45.07,1.8-.35,3.45-1.25,4.96-.55.93-1.28,1.74-2.18,2.45Z"/>
      <path class="cls-6" d="M180.18,271.99c-1.9.17-3.8.26-5.7.27-1.9,0-3.1-.06-3.61-.22-.51-.16-.77-.43-.78-.82-.09-6.45-.19-12.9-.28-19.35-2.26.03-4.52.08-6.78.16-.36.01-.68-.4-.97-1.23-.29-.83-.46-2.08-.52-3.74-.06-1.66.09-3.17.44-4.52.35-1.35.87-2.03,1.54-2.05,9.04-.26,18.09-.23,27.13.09.5.02.83.45.98,1.3.15.85.19,2.06.13,3.65-.06,1.59-.3,3.08-.72,4.48-.41,1.4-.93,2.08-1.54,2.06-2.03-.07-4.06-.12-6.09-.16-.12,6.45-.25,12.9-.37,19.35,0,.33-.96.57-2.86.74Z"/>
      <path class="cls-6" d="M207.49,273.57c-3.37-.28-6.75-.52-10.12-.71-1.54-.09-2.57-.24-3.08-.48-.51-.23-.76-.58-.74-1.03.45-9.63.89-19.27,1.34-28.9.06-1.42,4.93-2,14.59-1.23,5.54.45,9.32,1.34,11.3,2.52,2.02,1.22,3.23,2.63,3.64,4.22.22.93.26,1.99.12,3.19-.28,2.32-.92,4.01-1.91,5.08-.99,1.06-1.99,1.61-3,1.65,1.47.47,2.64,1.3,3.5,2.49.86,1.19,1.13,3.07.81,5.63-.37,2.98-1.6,5.06-3.65,6.27-1.79,1.06-4.36,1.57-7.75,1.58-1.43-.02-3.11-.11-5.05-.27ZM209.16,254.03c1.65.14,2.56-.8,2.75-2.83.09-1.01-.06-1.79-.46-2.32-.4-.53-.88-.82-1.44-.87-.53-.04-1.05-.09-1.58-.13-.16,2.02-.32,4.04-.49,6.06.4.03.81.07,1.21.1ZM206.92,266.8c.39.03.78.06,1.18.1,1.6.13,2.49-.81,2.67-2.84.09-1.02-.05-1.79-.44-2.32-.39-.53-.85-.82-1.39-.87-.51-.04-1.02-.08-1.53-.13-.16,2.02-.32,4.04-.49,6.06Z"/>
      <path class="cls-6" d="M243.79,277.98c-1.9-.1-3.78-.3-5.63-.61-1.85-.3-3.03-.59-3.55-.87-.52-.28-.75-.65-.67-1.13.39-2.58.79-5.16,1.18-7.74-4.4-12.96-6.95-19.9-6.79-20.95.08-.62,1.27-1.14,3.58-1.52,2.31-.38,4.7-.38,7.16,0,3.15.49,4.68,1.6,4.6,3.29-.22,4.05-.45,8.11-.7,12.16.18.03.35.06.53.09.97-3.82,1.94-7.64,2.93-11.46.21-.81,1.49-1.29,3.86-1.39,2.37-.1,4.58.06,6.62.46,2.04.41,3.4.97,4.08,1.66.68.69.95,1.34.83,1.92-.09.57-4.92,6.42-13.62,17.97-.48,2.57-.96,5.13-1.45,7.7-.07.38-1.06.51-2.97.41Z"/>
      <path class="cls-6" d="M274.51,284.89c-1.9-.3-3.78-.69-5.63-1.15-1.86-.46-3.01-.83-3.47-1.11-.46-.28-.65-.61-.56-.99,1.49-6.27,2.99-12.55,4.48-18.82-2.21-.53-4.43-1.04-6.65-1.52-.35-.08-.56-.55-.64-1.43-.08-.87.06-2.13.41-3.76.35-1.63.86-3.05,1.54-4.27.68-1.22,1.35-1.76,2-1.61,8.88,1.98,17.71,4.25,26.48,6.81.49.14.7.64.64,1.5-.06.86-.32,2.05-.77,3.57-.45,1.53-1.05,2.91-1.8,4.16-.75,1.25-1.42,1.79-2.02,1.61-1.97-.57-3.94-1.13-5.92-1.67-1.71,6.22-3.41,12.44-5.12,18.66-.09.32-1.08.32-2.98,0Z"/>
      <path class="cls-6" d="M309.89,296.48c-6.23-2.33-12.5-4.48-18.82-6.47-1.46-.46-2.41-.86-2.86-1.22-.45-.36-.6-.75-.47-1.18,2.76-9.08,5.53-18.17,8.29-27.25.23-.75.77-1.16,1.62-1.24.85-.08,2.27.18,4.24.81,6.48,2.06,12.92,4.29,19.32,6.68.67.25.63,1.35-.1,3.3-.74,1.95-1.44,3.39-2.1,4.31-.67.92-1.23,1.29-1.7,1.12-2.02-.75-5.36-2.19-10.07-4.21-.33.95-.65,1.9-.97,2.85,4.67,1.41,7.69,2.43,9.08,2.94.84.31.92,1.35.27,3.12-.66,1.77-1.32,3.05-1.98,3.85-.66.8-1.26,1.09-1.8.89-2.72-1.06-5.46-2.09-8.2-3.09-.31.91-.62,1.82-.93,2.73,5.4,1.44,9.08,2.6,11.07,3.34.63.24.58,1.34-.17,3.3-.74,1.96-1.44,3.4-2.08,4.31-.65.91-1.19,1.28-1.63,1.12Z"/>
    </g>
  </g>
</svg>