<?xml version="1.0" encoding="UTF-8"?>
<svg id="Layer_2" xmlns="http://www.w3.org/2000/svg" version="1.1" viewBox="0 0 350.9 321.1">
  <!-- Generator: Adobe Illustrator 29.5.1, SVG Export Plug-In . SVG Version: 2.1.0 Build 141)  -->
  <defs>
    <style>
      .st0 {
        fill: #14014f;
      }

      .st1 {
        fill: #ff9717;
      }

      .st2 {
        fill: #ff66b3;
      }

      .st3 {
        fill: #fff;
      }

      .st4 {
        fill: #42bfdd;
      }

      .st5 {
        fill: #fac25d;
      }

      .st6 {
        fill: #e31581;
      }

      .st7 {
        fill: #084b83;
      }
    </style>
  </defs>
  <g id="OBJECTS">
    <path class="st4" d="M296.2,257.8c17.5-24.4,27.9-54.3,27.9-86.7,0-82.1-66.5-148.6-148.6-148.6S26.9,89,26.9,171.1s10.3,62.3,27.9,86.7h241.4Z"/>
    <g>
      <g>
        <circle class="st2" cx="175.6" cy="120.4" r="72.1"/>
        <path class="st5" d="M110.5,182.9l50.2,121.3c4.8,12.9,23,13,27.9.1l51.6-120.8s-129.6-.6-129.7-.6Z"/>
        <path class="st5" d="M241.9,186.8l-133.3-.6c-2.7,0-4.9-2-5.1-4.6l-2.3-27.4c-.2-2.9,2.1-5.4,5.2-5.4l138.2.7c3,0,5.4,2.5,5.1,5.5l-2.6,27.4c-.2,2.6-2.5,4.6-5.1,4.6h0Z"/>
        <polygon class="st1" points="238.5 187.3 113.1 189.1 111.9 186.2 238.7 186.8 238.5 187.3"/>
        <path class="st2" d="M129.3,170.1h0c-3.8,0-6.9-3.1-6.9-6.9v-16.6c0-3.8,3.1-6.9,6.9-6.9h0c3.8,0,6.9,3.1,6.9,6.9v16.6c0,3.8-3.1,6.9-6.9,6.9Z"/>
        <path class="st2" d="M156.9,139.7h0c3.8,0,6.9,3.1,6.9,6.9v54c0,3.8-3.1,6.9-6.9,6.9h0c-3.8,0-6.9-3.1-6.9-6.9v-54c0-3.8,3.1-6.9,6.9-6.9Z"/>
        <path class="st2" d="M143.1,140.8c-3.8,0-6.9,3.1-6.9,6.9v9c0-3.8,3.1-6.9,6.9-6.9s6.9,3.1,6.9,6.9v-9c0-3.8-3.1-6.9-6.9-6.9Z"/>
        <path class="st2" d="M220.4,170.1h0c-3.8,0-6.9-3.1-6.9-6.9v-16.6c0-3.8,3.1-6.9,6.9-6.9h0c3.8,0,6.9,3.1,6.9,6.9v16.6c0,3.8-3.1,6.9-6.9,6.9Z"/>
        <path class="st2" d="M220.4,192.7h0c-3.8,0-6.9-3.1-6.9-6.9v-2.8c0-3.8,3.1-6.9,6.9-6.9h0c3.8,0,6.9,3.1,6.9,6.9v2.8c0,3.8-3.1,6.9-6.9,6.9Z"/>
        <path class="st2" d="M184.5,157.9h0c-3.8,0-6.9-3.1-6.9-6.9v-11.1c0-3.8,3.1-6.9,6.9-6.9h0c3.8,0,6.9,3.1,6.9,6.9v11.1c0,3.8-3.1,6.9-6.9,6.9Z"/>
        <path class="st3" d="M196.6,55.7c6.5,2.1,11.1,5.8,10.3,8.2-.8,2.4-6.7,2.6-13.2.5s-11.1-5.8-10.3-8.2,6.7-2.6,13.2-.5Z"/>
      </g>
      <g>
        <g>
          <path class="st0" d="M186.4,73.8c-1,.3-7.2,1.8-10.9,1.8s-9.9-1.5-10.9-1.8c-29-8.9-56.8,0-56.8,0v7.6c1.7,1.1,2.9,2.8,3.3,4.8l2,9.5s3.4,21.8,25,20.9c23.7,0,31-30.6,31-30.6.6-2.9,4.4-3.2,6.5-3.3,2.1,0,5.9.4,6.5,3.3,0,0,7.2,30.6,31,30.6,21.6.9,25-20.9,25-20.9l2-9.5c.4-2,1.6-3.7,3.3-4.8h0v-7.6s-27.8-8.9-56.8,0h0Z"/>
          <path class="st0" d="M138.4,73.6c11.1,0,22.4,2.5,24.7,6.6s-3.2,23.9-12.6,29.4c-9.1,5.4-21.3,4.7-26.7-1-7.5-7.4-9-25.2-7.1-29.4,1.9-4.2,10.7-5.6,21.7-5.6h0Z"/>
          <path class="st0" d="M212.6,73.6c-11.1,0-22.4,2.5-24.7,6.6s3.2,23.9,12.6,29.4c9.1,5.4,21.3,4.7,26.7-1,7.5-7.4,9-25.2,7.1-29.4-1.9-4.2-10.7-5.6-21.7-5.6h0Z"/>
        </g>
        <path class="st6" d="M175.4,134.8c-14.3,0-25.1-4.6-30.7-7.6,3.8,2.6,15,9.1,30.7,9.1s27-6.6,30.7-9.1c-5.6,3-16.4,7.6-30.7,7.6Z"/>
        <path class="st6" d="M165.2,100.5c0,5.7,4.6,10.3,10.3,10.3s10.3-4.6,10.3-10.3c-7.2-1-14-1-20.5,0h0Z"/>
        <path class="st3" d="M168.3,101.2s.5,2.5,1.7,3.1c1.1.6,9.9.5,10.8.1s1.8-3.3,1.8-3.3c-4.9-.5-9.7-.5-14.3,0h0Z"/>
        <path class="st6" d="M180,92.2c-1.1-1.6-2.7-2.5-4.6-2.5-1.8,0-3.4.9-4.4,2.5l-.9-.5c1.1-1.8,3.1-2.9,5.2-2.9h0c2.1,0,4.1,1.1,5.3,2.9l-.8.6h0Z"/>
      </g>
    </g>
    <g>
      <polygon class="st3" points="63.5 148.1 76.3 151.4 63.5 154.6 60.3 165.4 57 154.6 45.4 151.4 57 148.1 60.3 137.6 63.5 148.1"/>
      <polygon class="st3" points="266.7 205.8 279.4 209.1 266.7 212.4 263.4 223.1 260.1 212.4 248.6 209.1 260.1 205.8 263.4 195.3 266.7 205.8"/>
      <polygon class="st3" points="77.6 131.3 83.9 133 77.6 134.6 76 139.9 74.4 134.6 68.7 133 74.4 131.3 76 126.1 77.6 131.3"/>
      <polygon class="st3" points="288.4 188.7 294.7 190.4 288.4 192 286.8 197.3 285.2 192 279.4 190.4 285.2 188.7 286.8 183.5 288.4 188.7"/>
      <polygon class="st3" points="93.5 67.3 99.8 68.9 93.5 70.5 91.9 75.8 90.2 70.5 84.5 68.9 90.2 67.3 91.9 62.1 93.5 67.3"/>
      <polygon class="st3" points="223.1 46.5 227.3 47.5 223.1 48.6 222.1 52.1 221 48.6 217.2 47.5 221 46.5 222.1 43 223.1 46.5"/>
      <polygon class="st3" points="291.8 119.3 295.9 120.4 291.8 121.5 290.7 125 289.6 121.5 285.9 120.4 289.6 119.3 290.7 115.9 291.8 119.3"/>
      <polygon class="st3" points="267.5 139.7 271.6 140.8 267.5 141.8 266.4 145.3 265.4 141.8 261.6 140.8 265.4 139.7 266.4 136.3 267.5 139.7"/>
      <polygon class="st3" points="66.8 212.6 70.9 213.7 66.8 214.8 65.7 218.2 64.6 214.8 60.9 213.7 64.6 212.6 65.7 209.2 66.8 212.6"/>
      <polygon class="st3" points="263.4 97.5 271.9 99.7 263.4 101.9 261.2 109.1 259 101.9 251.3 99.7 259 97.5 261.2 90.5 263.4 97.5"/>
      <polygon class="st3" points="110.2 216.6 116.5 218.2 110.2 219.8 108.6 225.1 106.9 219.8 101.2 218.2 106.9 216.6 108.6 211.4 110.2 216.6"/>
    </g>
    <path class="st2" d="M324.7,321.1c-94.1-46.1-204.3-46.1-298.4,0-4.4-8.9,6.5-24.6,2.1-33.6C24,278.6,4.4,276.5,0,267.5c110.7-54.2,240.2-54.2,350.9,0-4.3,8.8-23.7,10.5-28,19.3-4.4,9,6.2,25.3,1.8,34.3h0Z"/>
    <circle class="st2" cx="39.4" cy="81.2" r="3.7"/>
    <circle class="st2" cx="311.5" cy="81.2" r="3.7"/>
  </g>
  <g id="TEXT">
    <g>
      <path class="st7" d="M44.5,63.1l7.1-8.3,1.8,1.6-2.6,3,9.5,8.1-2,2.3-9.5-8.1-2.6,3-1.8-1.6h0Z"/>
      <path class="st7" d="M69.7,48.9l-4.7,4.4,4.3,4.6-2.2,2-10.1-10.9,2.2-2,4.1,4.5,4.7-4.4-4.1-4.5,2.2-2,10.1,10.9-2.2,2s-4.3-4.6-4.3-4.6Z"/>
      <path class="st7" d="M81.2,32l-4.6,3.4,2.2,3,4.1-3,1.4,1.9-4.1,3,2.3,3.2,4.6-3.4,1.4,2-7,5.2-8.8-11.9,7-5.1,1.4,1.9h0Z"/>
      <path class="st7" d="M101.4,17.1c3-1.5,6.2-1.1,8.4,1.2l-3.1,1.5c-1.3-1-2.7-1-4.2-.3-2.3,1.2-3.2,3.7-1.8,6.4,1.3,2.7,3.8,3.6,6.2,2.4,1.4-.7,2.3-1.9,2.3-3.5l3.1-1.5c.4,3.2-1.2,5.9-4.2,7.4-3.9,1.9-8.2.6-10.2-3.4s-.4-8.2,3.5-10.2h0Z"/>
      <path class="st7" d="M126.9,23c-4,1.4-8.3-.5-9.7-4.8-1.4-4.2.8-8.3,4.9-9.6,4.1-1.4,8.3.5,9.7,4.7,1.4,4.2-.8,8.3-4.8,9.6h0ZM126.1,20.5c2.6-.9,3.7-3.3,2.8-6.1-1-2.9-3.3-4.1-5.9-3.2-2.6.9-3.8,3.3-2.8,6.1,1,2.9,3.3,4.1,5.9,3.2h0Z"/>
      <path class="st7" d="M146.8,17.7c-4.1.8-8.1-1.6-9-6-.8-4.4,2-8.1,6.1-8.9,4.2-.8,8.1,1.6,8.9,6,.8,4.4-1.9,8.1-6.1,8.9ZM146.3,15.1c2.7-.5,4.1-2.8,3.6-5.7-.6-3-2.8-4.5-5.4-3.9-2.7.5-4.1,2.7-3.6,5.7.6,3,2.8,4.5,5.4,4Z"/>
      <path class="st7" d="M162.3.6l.9,12.4,4.9-.4.2,2.3-7.9.6-1.1-14.8,3-.2h0Z"/>
      <path class="st7" d="M183.1,2.6h-5.7c0-.1,0,3.6,0,3.6h5c0,0,0,2.5,0,2.5h-5c0-.1,0,3.8,0,3.8h5.7c0,.1,0,2.5,0,2.5l-8.7-.2L174.5,0l8.7.2v2.4c0,0,0,0,0,0Z"/>
      <path class="st7" d="M194.6,16.3c-3.1-.4-5.3-2.3-5-5.1l3.2.4c0,1.2.6,2.1,2,2.2,1.4.2,2.3-.4,2.5-1.5.4-3.2-7.5-2.2-6.8-7.6.3-2.7,2.7-4,5.8-3.6,3,.4,4.9,2.2,4.8,4.9l-3.3-.4c0-1-.6-1.8-1.9-2-1.2-.2-2.1.3-2.3,1.5-.4,2.9,7.4,2.3,6.8,7.4-.3,2.3-2.4,4.2-5.8,3.7h0Z"/>
      <path class="st7" d="M209,3.4l10.7,2.6-.6,2.3-3.9-.9-2.9,12.1-2.9-.7,2.9-12.1-3.9-.9.6-2.3Z"/>
      <path class="st7" d="M238,22.1l-2.3-1-2.2,5.2-2.8-1.2,5.8-13.6,5.1,2.2c3.3,1.4,4.2,4,3.2,6.3-.9,2.1-3.2,3.6-6.8,2.1h0ZM238.8,19.9c1.6.7,2.6.2,3.1-1,.5-1.2.2-2.3-1.4-2.9l-2.2-.9-1.7,4,2.2.9Z"/>
      <path class="st7" d="M255.9,20.7l-6,10.9,4.3,2.4-1.1,2.1-6.9-3.8,7.1-13,2.6,1.5h0Z"/>
      <path class="st7" d="M267.2,42l-4.9-3.4-2.4,1.7-2.6-1.8,12.9-9,2.9,2-4.1,15.2-2.6-1.8.8-2.9h0ZM269.7,33.3l-5.3,3.8,3.5,2.5,1.8-6.3h0Z"/>
      <path class="st7" d="M288.8,44c2.5,2.2,3.2,5.4,1.9,8.3l-2.5-2.3c.4-1.5,0-2.9-1.2-4-1.9-1.8-4.6-1.6-6.6.6-2,2.2-1.9,4.9,0,6.6,1.2,1.1,2.6,1.4,4.1.9l2.5,2.3c-2.8,1.6-6,1-8.4-1.2-3.2-2.9-3.5-7.4-.5-10.7s7.5-3.4,10.7-.4h0Z"/>
      <path class="st7" d="M303.2,63.1l-3.7-4.3-2.8,2.4,3.3,3.8-1.8,1.5-3.3-3.8-3,2.6,3.7,4.3-1.8,1.6-5.7-6.6,11.2-9.7,5.7,6.6-1.8,1.6h0Z"/>
    </g>
    <g>
      <path class="st3" d="M49.4,293.3c-1.8.9-3.6,1.6-5.3,2.2-1.7.6-2.8.9-3.4.9-.6,0-.9-.2-1.1-.6-3.4-8.9-6.7-17.8-10.1-26.7-.3-.7,0-1.4.6-2s2.2-1.4,4.5-2.2c5.9-2.1,11.9-4.1,17.9-6,.7-.2,1.3.8,2,2.9.7,2.2,1,3.9,1.1,5.1s-.2,1.9-.6,2.1c-3.2.9-6.5,1.8-9.7,2.7.3,1,.7,1.9,1,2.9,4.1-1.6,6.8-2.5,8.2-3,.5-.1.9,0,1.2.4.3.4.7,1.3,1.1,2.6.4,1.3.6,2.6.7,3.9s-.2,2-.7,2.2c-2.6.7-5.1,1.5-7.7,2.2,1,2.8,1.9,5.7,2.9,8.5.1.4-.7,1.1-2.5,1.9h0Z"/>
      <path class="st3" d="M78.3,283.5c0,.4-.7.9-2.5,1.6-1.8.7-3.6,1.4-5.4,1.9s-3.1.8-3.6.7c-.6,0-.9-.3-1.1-.7-2.8-9.2-5.5-18.5-8.3-27.7-.2-.8.7-1.6,2.7-2.5s4.7-1.9,7.9-2.7c3.3-.9,5.4-1.4,6.3-1.6s2.1-.5,3.4-.7c1.3-.2,2.4-.3,3.2-.3.8,0,1.7,0,2.7.2,1,.1,1.8.4,2.5.8.6.4,1.3.9,1.9,1.5,1.2,1.1,2,2.8,2.5,5.1.5,2.3.5,4.4,0,6.2-.5,1.8-1.3,3.2-2.5,4.4,4.8,4.5,7.2,7.5,7.6,8.9.3,1.5-2.5,2.8-8.5,4.2-1.7.4-2.9.6-3.6.6s-1.2-.2-1.5-.6c-1.7-2.8-3.5-5.5-5.3-8.2-.3,0-.5.1-.8.2.8,3,1.6,6,2.3,8.9h0ZM74.3,267.8c.4-.1.8-.2,1.2-.3,1.8-.5,2.4-2,1.8-4.6-.3-1.3-.8-2.2-1.5-2.6s-1.3-.6-1.9-.4c-.5.1-1.1.3-1.6.4.7,2.5,1.3,5,2,7.6h0Z"/>
      <path class="st3" d="M114,277.7c-2.5.4-4.7.6-6.6.4s-3.7-.6-5.5-1.5c-3.5-1.7-6-5.8-7.4-12.4-.6-2.8-.6-5.3-.2-7.5.5-2.2,1.4-4.1,2.8-5.6,2.7-3,6.6-4.9,11.7-5.7,2.6-.4,4.9-.6,6.9-.4,2,.1,3.9.6,5.8,1.5,3.8,1.8,6,5.9,6.8,12.3.7,5.7-.3,10.1-2.9,13.2-2.6,3.1-6.3,5-11.3,5.8h0ZM111.2,270.3c.4.4,1,.5,1.7.4.7-.1,1.1-.4,1.4-.9.3-.5.5-1.5.5-2.9,0-1.5-.2-3.4-.5-6-.4-2.5-.8-4.4-1.3-5.8-.5-1.3-.9-2.2-1.4-2.5-.5-.4-1-.5-1.7-.4s-1.2.4-1.5.9-.5,1.4-.5,2.8c0,1.4.2,3.4.6,5.9.4,2.5.9,4.5,1.4,5.8s1,2.2,1.4,2.6h0Z"/>
      <path class="st3" d="M156.5,270.8c-.9.7-2.2,1.3-3.8,1.9s-3.7.9-6.3,1.1c-2.6.2-5.1.2-7.5,0s-4.1-.5-5.2-.9c-1.1-.4-1.6-.8-1.7-1.3-.2-1.7-.1-3.4.2-5.3.3-1.9.8-2.8,1.5-2.9.1,0,1.5.2,4.1.8,2.6.6,4.5.8,5.7.7s2.1-.3,2.4-.6c.4-.3.5-.7.5-1.1,0-.5-.4-.9-1.1-1.2-.7-.3-1.6-.6-2.7-.8-1.1-.2-2.2-.5-3.5-.9-1.3-.4-2.5-.9-3.6-1.5-1.1-.5-2.1-1.4-2.9-2.5-.8-1.1-1.4-2.5-1.5-4-.8-6.6,3.3-10.5,12.2-11.2,3.3-.3,6.2-.3,8.6,0,2.4.2,4.1.6,5.1,1s1.5.9,1.5,1.3c0,1.6-.3,3.2-1,5.1-.7,1.8-1.4,2.8-2.2,2.8-.1,0-.6-.1-1.3-.3-2.2-.8-4-1.1-5.4-1-1.4.1-2.4.3-2.9.6-.5.3-.7.7-.7,1.2,0,.5.4.9,1.2,1.1.7.3,1.6.5,2.7.7,1.1.2,2.2.5,3.5.9,1.3.4,2.5,1,3.6,1.7,1.1.6,2,1.6,2.8,2.9s1.2,2.7,1.2,4.5c0,1.8-.4,3.5-1.2,5-.6.9-1.3,1.7-2.2,2.5h0Z"/>
      <path class="st3" d="M180.2,272c-1.9.2-3.8.3-5.7.3-1.9,0-3.1,0-3.6-.2s-.8-.4-.8-.8c0-6.5-.2-12.9-.3-19.4-2.3,0-4.5,0-6.8.2-.4,0-.7-.4-1-1.2-.3-.8-.5-2.1-.5-3.7s0-3.2.4-4.5.9-2,1.5-2.1c9-.3,18.1-.2,27.1,0,.5,0,.8.4,1,1.3s.2,2.1.1,3.6-.3,3.1-.7,4.5c-.4,1.4-.9,2.1-1.5,2.1-2,0-4.1-.1-6.1-.2-.1,6.5-.2,12.9-.4,19.4,0,.3-1,.6-2.9.7h0Z"/>
      <path class="st3" d="M207.5,273.6c-3.4-.3-6.8-.5-10.1-.7-1.5,0-2.6-.2-3.1-.5-.5-.2-.8-.6-.7-1,.4-9.6.9-19.3,1.3-28.9,0-1.4,4.9-2,14.6-1.2,5.5.4,9.3,1.3,11.3,2.5,2,1.2,3.2,2.6,3.6,4.2.2.9.3,2,.1,3.2-.3,2.3-.9,4-1.9,5.1-1,1.1-2,1.6-3,1.6,1.5.5,2.6,1.3,3.5,2.5s1.1,3.1.8,5.6c-.4,3-1.6,5.1-3.6,6.3-1.8,1.1-4.4,1.6-7.8,1.6-1.4,0-3.1-.1-5.1-.3h0ZM209.2,254c1.6.1,2.6-.8,2.8-2.8,0-1,0-1.8-.5-2.3-.4-.5-.9-.8-1.4-.9-.5,0-1.1,0-1.6-.1-.2,2-.3,4-.5,6.1.4,0,.8,0,1.2.1h0ZM206.9,266.8c.4,0,.8,0,1.2.1,1.6.1,2.5-.8,2.7-2.8,0-1,0-1.8-.4-2.3s-.9-.8-1.4-.9c-.5,0-1,0-1.5-.1-.2,2-.3,4-.5,6.1h0Z"/>
      <path class="st3" d="M243.8,278c-1.9-.1-3.8-.3-5.6-.6-1.9-.3-3-.6-3.6-.9s-.8-.6-.7-1.1c.4-2.6.8-5.2,1.2-7.7-4.4-13-6.9-19.9-6.8-20.9,0-.6,1.3-1.1,3.6-1.5s4.7-.4,7.2,0c3.1.5,4.7,1.6,4.6,3.3-.2,4.1-.4,8.1-.7,12.2.2,0,.4,0,.5,0,1-3.8,1.9-7.6,2.9-11.5.2-.8,1.5-1.3,3.9-1.4s4.6,0,6.6.5c2,.4,3.4,1,4.1,1.7s1,1.3.8,1.9c0,.6-4.9,6.4-13.6,18-.5,2.6-1,5.1-1.4,7.7,0,.4-1.1.5-3,.4h0Z"/>
      <path class="st3" d="M274.5,284.9c-1.9-.3-3.8-.7-5.6-1.1-1.9-.5-3-.8-3.5-1.1s-.6-.6-.6-1c1.5-6.3,3-12.5,4.5-18.8-2.2-.5-4.4-1-6.6-1.5-.4,0-.6-.5-.6-1.4,0-.9,0-2.1.4-3.8s.9-3.1,1.5-4.3c.7-1.2,1.4-1.8,2-1.6,8.9,2,17.7,4.2,26.5,6.8.5.1.7.6.6,1.5s-.3,2-.8,3.6c-.5,1.5-1,2.9-1.8,4.2s-1.4,1.8-2,1.6c-2-.6-3.9-1.1-5.9-1.7-1.7,6.2-3.4,12.4-5.1,18.7,0,.3-1.1.3-3,0h0Z"/>
      <path class="st3" d="M309.9,296.5c-6.2-2.3-12.5-4.5-18.8-6.5-1.5-.5-2.4-.9-2.9-1.2-.5-.4-.6-.8-.5-1.2,2.8-9.1,5.5-18.2,8.3-27.2.2-.8.8-1.2,1.6-1.2s2.3.2,4.2.8c6.5,2.1,12.9,4.3,19.3,6.7.7.2.6,1.4-.1,3.3-.7,2-1.4,3.4-2.1,4.3-.7.9-1.2,1.3-1.7,1.1-2-.8-5.4-2.2-10.1-4.2-.3,1-.6,1.9-1,2.9,4.7,1.4,7.7,2.4,9.1,2.9.8.3.9,1.4.3,3.1-.7,1.8-1.3,3-2,3.9-.7.8-1.3,1.1-1.8.9-2.7-1.1-5.5-2.1-8.2-3.1l-.9,2.7c5.4,1.4,9.1,2.6,11.1,3.3.6.2.6,1.3-.2,3.3-.7,2-1.4,3.4-2.1,4.3-.6.9-1.2,1.3-1.6,1.1h0Z"/>
    </g>
  </g>
</svg>