<?xml version="1.0" encoding="UTF-8"?>
<svg id="Layer_2" data-name="Layer 2" xmlns="http://www.w3.org/2000/svg" viewBox="0 0 1940.81 594.99">
  <defs>
    <style>
      .cls-1 {
        fill: #14014f;
      }

      .cls-2 {
        fill: #ff9717;
      }

      .cls-3 {
        fill: #ff66b3;
      }

      .cls-4 {
        fill: #fff;
      }

      .cls-5 {
        fill: #42bfdd;
      }

      .cls-6 {
        fill: #e31581;
      }

      .cls-7 {
        fill: #fac25d;
      }

      .cls-8 {
        fill: #084b83;
      }
    </style>
  </defs>
  <g id="TEXT">
    <g>
      <circle class="cls-5" cx="275.21" cy="275.21" r="275.21" transform="translate(-114 275.21) rotate(-45)"/>
      <g>
        <g>
          <circle class="cls-3" cx="275.45" cy="217.58" r="140.61" transform="translate(-73.18 258.5) rotate(-45)"/>
          <path class="cls-7" d="M148.48,339.38l98,236.63c9.28,25.18,44.83,25.35,54.35.26l100.57-235.67-252.93-1.22Z"/>
          <path class="cls-7" d="M404.89,347.11l-259.97-1.26c-5.21-.03-9.54-3.92-9.97-8.97l-4.55-53.54c-.49-5.72,4.17-10.61,10.06-10.58l269.58,1.3c5.89.03,10.5,4.96,9.96,10.67l-5.07,53.5c-.48,5.05-4.84,8.9-10.05,8.88Z"/>
          <polygon class="cls-2" points="398.21 348.06 153.55 351.63 151.18 345.88 398.65 347.08 398.21 348.06"/>
          <path class="cls-3" d="M185.18,314.43h0c-7.42,0-13.43-6.01-13.43-13.43v-32.32c0-7.42,6.01-13.43,13.43-13.43h0c7.42,0,13.43,6.01,13.43,13.43v32.32c0,7.42-6.01,13.43-13.43,13.43Z"/>
          <rect class="cls-3" x="225.48" y="255.25" width="26.87" height="132.27" rx="5.82" ry="5.82"/>
          <path class="cls-3" d="M212.05,257.29c-7.42,0-13.43,6.01-13.43,13.43v17.51c0-7.42,6.01-13.43,13.43-13.43s13.43,6.01,13.43,13.43v-17.51c0-7.42-6.01-13.43-13.43-13.43Z"/>
          <path class="cls-3" d="M362.9,314.43h0c-7.42,0-13.43-6.01-13.43-13.43v-32.32c0-7.42,6.01-13.43,13.43-13.43h0c7.42,0,13.43,6.01,13.43,13.43v32.32c0,7.42-6.01,13.43-13.43,13.43Z"/>
          <path class="cls-3" d="M362.9,358.64h0c-7.42,0-13.43-6.01-13.43-13.43v-5.5c0-7.42,6.01-13.43,13.43-13.43h0c7.42,0,13.43,6.01,13.43,13.43v5.5c0,7.42-6.01,13.43-13.43,13.43Z"/>
          <path class="cls-3" d="M292.92,290.6h0c-7.42,0-13.43-6.01-13.43-13.43v-21.6c0-7.42,6.01-13.43,13.43-13.43h0c7.42,0,13.43,6.01,13.43,13.43v21.6c0,7.42-6.01,13.43-13.43,13.43Z"/>
          <path class="cls-4" d="M316.39,91.24c12.67,4.12,21.7,11.26,20.18,15.95-1.52,4.69-13.03,5.16-25.7,1.04-12.67-4.12-21.7-11.26-20.18-15.95,1.53-4.69,13.03-5.16,25.7-1.04Z"/>
        </g>
        <g>
          <g>
            <path class="cls-1" d="M296.56,126.68c-1.98.62-14.05,3.57-21.34,3.57s-19.36-2.95-21.34-3.57c-56.64-17.43-110.84,0-110.84,0v14.81c3.28,2.18,5.57,5.56,6.39,9.41l3.96,18.5s6.68,42.58,48.74,40.88c46.25.05,60.4-59.61,60.4-59.61,1.28-5.65,8.67-6.27,12.69-6.35,4.03.08,11.42.7,12.69,6.35,0,0,14.15,59.66,60.4,59.61,42.06,1.7,48.74-40.88,48.74-40.88l3.96-18.5c.82-3.85,3.12-7.23,6.39-9.41h0v-14.81s-54.2-17.43-110.84,0Z"/>
            <path class="cls-1" d="M202.85,126.28c21.55,0,43.63,4.85,48.15,12.84,4.52,7.99-6.16,46.58-24.5,57.32-17.75,10.61-41.47,9.11-52.15-1.97-14.61-14.41-17.62-49.2-13.89-57.32,3.73-8.12,20.83-10.87,42.38-10.87Z"/>
            <path class="cls-1" d="M347.58,126.28c-21.55,0-43.63,4.85-48.15,12.84-4.52,7.99,6.16,46.58,24.5,57.32,17.75,10.61,41.47,9.11,52.15-1.97,14.61-14.41,17.62-49.2,13.89-57.32-3.73-8.12-20.83-10.87-42.38-10.87Z"/>
          </g>
          <path class="cls-6" d="M275.21,245.69c-27.84,0-49.04-8.96-59.93-14.82,7.34,4.97,29.27,17.82,59.93,17.82s52.59-12.85,59.93-17.82c-10.89,5.85-32.09,14.82-59.93,14.82Z"/>
          <path class="cls-6" d="M255.19,178.77c0,11.06,8.97,20.02,20.02,20.02s20.02-8.97,20.02-20.02c-14.02-2-27.34-1.9-40.05,0Z"/>
          <path class="cls-4" d="M261.28,180.01s1.05,4.94,3.26,6.09c2.21,1.16,19.23.98,21.03.27,1.8-.7,3.57-6.38,3.57-6.38-9.6-.94-18.89-.93-27.86.01Z"/>
          <path class="cls-6" d="M284.15,162.53c-2.06-3.11-5.29-4.83-8.88-4.83-3.46.04-6.64,1.84-8.5,4.81l-1.65-1.04c2.22-3.53,6-5.67,10.13-5.72h.15c4.14,0,8.01,2.12,10.38,5.7l-1.63,1.08Z"/>
        </g>
      </g>
      <g>
        <polygon class="cls-4" points="66.2 255.6 91.12 261.97 66.2 268.34 59.83 289.29 53.47 268.34 30.86 261.97 53.47 255.6 59.83 235.08 66.2 255.6"/>
        <polygon class="cls-4" points="462.48 368.23 487.4 374.6 462.48 380.97 456.12 401.92 449.75 380.97 427.14 374.6 449.75 368.23 456.12 347.71 462.48 368.23"/>
        <polygon class="cls-4" points="93.7 222.94 106.03 226.09 93.7 229.24 90.55 239.6 87.4 229.24 76.21 226.09 87.4 222.94 90.55 212.79 93.7 222.94"/>
        <polygon class="cls-4" points="504.89 334.92 517.22 338.07 504.89 341.22 501.74 351.59 498.59 341.22 487.4 338.07 498.59 334.92 501.74 324.77 504.89 334.92"/>
        <polygon class="cls-4" points="124.59 97.93 136.92 101.08 124.59 104.23 121.44 114.6 118.29 104.23 107.11 101.08 118.29 97.93 121.44 87.78 124.59 97.93"/>
        <polygon class="cls-4" points="377.56 57.34 385.68 59.42 377.56 61.49 375.49 68.32 373.41 61.49 366.05 59.42 373.41 57.34 375.49 50.66 377.56 57.34"/>
        <polygon class="cls-4" points="511.46 199.51 519.57 201.58 511.46 203.65 509.38 210.48 507.31 203.65 499.95 201.58 507.31 199.51 509.38 192.82 511.46 199.51"/>
        <polygon class="cls-4" points="464.05 239.21 472.16 241.29 464.05 243.36 461.98 250.18 459.9 243.36 452.54 241.29 459.9 239.21 461.98 232.53 464.05 239.21"/>
        <polygon class="cls-4" points="72.5 381.5 80.61 383.57 72.5 385.65 70.42 392.47 68.35 385.65 60.99 383.57 68.35 381.5 70.42 374.82 72.5 381.5"/>
        <polygon class="cls-4" points="456.02 156.98 472.66 161.23 456.02 165.49 451.77 179.48 447.52 165.49 432.42 161.23 447.52 156.98 451.77 143.28 456.02 156.98"/>
        <polygon class="cls-4" points="157.18 389.21 169.51 392.36 157.18 395.51 154.03 405.88 150.88 395.51 139.69 392.36 150.88 389.21 154.03 379.06 157.18 389.21"/>
      </g>
    </g>
    <g>
      <g>
        <path class="cls-3" d="M690.4,302.15c-10.46,1.14-20.4,1.7-29.81,1.7s-15.49-.57-18.25-1.7c-2.76-1.13-4.14-2.92-4.14-5.35v-154.28c0-4.22,2.11-7.22,6.33-9,4.22-1.78,12.17-2.68,23.85-2.68h90.28c3.41,0,5.11,6.13,5.11,18.37s-.77,21.58-2.31,27.98c-1.54,6.41-3.53,9.61-5.96,9.61l-49.4-2.43v16.55c21.57-.97,36.01-1.46,43.31-1.46,2.43,0,4.1,1.3,4.99,3.89.89,2.6,1.34,7.58,1.34,14.96s-.81,14.44-2.43,21.17c-1.62,6.73-3.89,10.1-6.81,10.1l-40.4-1.46v48.67c0,2.43-5.23,4.22-15.7,5.35Z"/>
        <path class="cls-3" d="M845.29,226.96v71.06c0,1.79-4.59,3.21-13.75,4.26-9.17,1.06-18.66,1.58-28.47,1.58s-16.18-.45-19.1-1.34c-2.92-.89-4.38-2.39-4.38-4.5v-119.97c0-3.08,4.5-6.41,13.51-9.98,9-3.57,18.82-5.35,29.44-5.35s16.59,2.92,17.89,8.76l2.43,11.19h1.7c2.27-6.16,7.7-11.4,16.3-15.7,8.6-4.3,17.19-6.45,25.79-6.45s14.64,1.38,18.13,4.14c3.49,2.76,5.23,6.29,5.23,10.58s-.33,9.78-.97,16.43c-.65,6.65-2.23,13.87-4.75,21.66-2.52,7.79-5.8,11.68-9.86,11.68-1.62,0-6.73-1.22-15.33-3.65-8.6-2.43-15.7-3.65-21.29-3.65s-9.09.81-10.46,2.43c-1.38,1.62-2.07,3.89-2.07,6.81Z"/>
        <path class="cls-3" d="M997.13,306.04c-12.17,0-22.63-1.06-31.39-3.16s-16.71-5.84-23.85-11.19c-14.76-10.71-22.14-30.66-22.14-59.86,0-25.95,7.54-44.53,22.63-55.73,14.11-10.38,32.36-15.57,54.75-15.57,9.57,0,17.76.45,24.58,1.34,6.81.89,13.75,2.8,20.81,5.72,7.06,2.92,12.73,6.9,17.03,11.92,4.3,5.03,7.82,11.97,10.59,20.81,2.76,8.84,4.14,19.35,4.14,31.51,0,24.66-6.98,43.19-20.93,55.6-13.95,12.41-32.69,18.62-56.21,18.62ZM988.62,258.59c1.13,5.84,2.31,9.33,3.53,10.46,1.22,1.14,2.84,1.7,4.87,1.7s3.65-.57,4.87-1.7c1.22-1.13,2.35-4.62,3.41-10.46,1.05-5.84,1.58-13.18,1.58-22.02s-.21-15.65-.61-20.44c-.41-4.78-.89-8.48-1.46-11.07-.57-2.59-1.34-4.62-2.31-6.08-1.46-2.11-3.21-3.16-5.23-3.16s-3.69.61-4.99,1.83c-1.3,1.22-2.52,4.79-3.65,10.71-1.14,5.92-1.7,14.32-1.7,25.19s.57,19.22,1.7,25.06Z"/>
        <path class="cls-3" d="M1155.06,306.04c-26.93,0-46.64-2.59-59.13-7.79-6.33-2.76-9.49-5.43-9.49-8.03,0-6.65,1.95-14.44,5.84-23.36,3.89-8.92,7.3-13.38,10.22-13.38,1.62,0,7.1,1.79,16.43,5.35,9.33,3.57,17.19,5.35,23.6,5.35s10.62-.4,12.65-1.22c2.03-.81,3.04-2.39,3.04-4.75s-1.62-4.22-4.87-5.6c-3.25-1.38-7.3-2.31-12.17-2.8-4.87-.49-10.1-1.46-15.7-2.92-5.6-1.46-10.83-3.32-15.7-5.6-4.87-2.27-8.92-6.04-12.17-11.32-3.25-5.27-4.87-10.95-4.87-17.03s.16-10.62.49-13.63c.32-3,1.66-7.22,4.02-12.65,2.35-5.43,5.68-9.86,9.98-13.26,4.3-3.41,10.95-6.49,19.95-9.25,9-2.76,19.1-4.14,30.3-4.14s20.56.37,28.11,1.09c7.54.73,13.46,1.67,17.76,2.8,4.3,1.14,7.82,2.43,10.58,3.89,4.7,2.43,7.06,5.11,7.06,8.03,0,6.33-2.27,13.63-6.81,21.9-4.54,8.27-8.15,12.41-10.83,12.41s-8.48-1.42-17.4-4.26c-8.92-2.84-15.49-4.26-19.71-4.26-6.81,0-10.22,1.95-10.22,5.84,0,2.43,2.31,4.26,6.94,5.47s10.18,2.48,16.67,3.77c6.49,1.3,13.02,3.12,19.59,5.47,6.57,2.35,12.17,6.61,16.79,12.78,4.62,6.17,6.94,13.95,6.94,23.36,0,31.8-22.63,47.7-67.89,47.7Z"/>
        <path class="cls-3" d="M1333.19,301.66c-2.92,2.76-9.57,4.14-19.95,4.14s-18.98-.69-25.79-2.07c-6.81-1.38-13.3-4.09-19.47-8.15-11.84-7.95-17.76-24.49-17.76-49.64v-37.96h-12.17c-1.79,0-3.33-1.86-4.62-5.6-1.3-3.73-1.95-8.84-1.95-15.33s1.01-12.21,3.04-17.16c2.03-4.95,4.66-7.42,7.91-7.42h7.79v-29.44c0-5.03,4.9-9.08,14.72-12.17,9.81-3.08,19.43-4.62,28.84-4.62,14.76,0,22.14,3.65,22.14,10.95v35.28h18.01c4.22,0,6.33,6.08,6.33,18.25,0,7.95-.94,14.48-2.8,19.59-1.87,5.11-4.26,7.67-7.18,7.67h-14.36v44.53c0,4.38,1.86,7.51,5.6,9.37,3.73,1.87,7.02,2.8,9.85,2.8s4.58,1.38,5.23,4.14c.65,2.76.97,6.9.97,12.41,0,10.87-1.46,17.68-4.38,20.44Z"/>
        <path class="cls-3" d="M1429.79,303.85h-53.29c-8.11,0-13.55-.57-16.3-1.7-2.76-1.13-4.14-2.92-4.14-5.35v-156.47c0-7.79,23.44-11.68,70.33-11.68,26.93,0,45.5,2.6,55.73,7.79,10.38,5.35,17.03,12.17,19.95,20.44,1.62,4.87,2.43,10.55,2.43,17.03,0,12.65-2.15,22.14-6.45,28.47-4.3,6.33-8.97,9.9-13.99,10.71,7.62,1.62,13.95,5.35,18.98,11.19,5.03,5.84,7.54,15.74,7.54,29.69,0,16.22-4.95,28.23-14.84,36.01-8.6,6.81-21.74,11.11-39.42,12.9-7.46.65-16.3.97-26.52.97ZM1430.04,197.75c8.27,0,12.41-5.51,12.41-16.55,0-5.51-1.09-9.61-3.29-12.29-2.19-2.68-4.67-4.01-7.42-4.01h-7.79v32.85h6.08ZM1423.95,267.59h6.08c8.27,0,12.41-5.51,12.41-16.55,0-5.51-1.09-9.61-3.29-12.29-2.19-2.68-4.67-4.02-7.42-4.02h-7.79v32.85Z"/>
        <path class="cls-3" d="M1603.54,288.03v-14.36h-1.95c-.81.81-2.03,1.87-3.65,3.16-1.62,1.3-5.44,3-11.44,5.11-6,2.11-12.7,3.16-20.08,3.16s-13.87-1.17-19.47-3.53c-5.6-2.35-10.02-5.51-13.26-9.49-3.25-3.97-5.76-9.29-7.54-15.94-3.08-10.54-4.62-25.47-4.62-44.77v-33.58c0-3.41,4.78-6.77,14.36-10.1,9.57-3.32,19.63-4.99,30.17-4.99,14.11,0,21.17,3.65,21.17,10.95v30.66c0,32.45,2.59,48.67,7.79,48.67,3.08,0,4.62-2.19,4.62-6.57v-68.62c0-3.41,5.11-6.77,15.33-10.1,10.22-3.32,21.17-4.99,32.85-4.99s17.52,3.16,17.52,9.49v115.1c0,36.17-24.5,54.26-73.49,54.26-25.79,0-43.31-2.52-52.56-7.54-4.06-2.27-6.08-4.62-6.08-7.06,0-3.89,1.62-10.43,4.87-19.59,3.24-9.16,6.24-13.75,9-13.75.65,0,2.92.49,6.81,1.46,12,3.25,22.02,4.87,30.05,4.87s13.3-.89,15.82-2.68c2.51-1.78,3.77-4.87,3.77-9.25Z"/>
        <path class="cls-3" d="M1778.01,301.66c-2.92,2.76-9.57,4.14-19.95,4.14s-18.98-.69-25.79-2.07c-6.81-1.38-13.3-4.09-19.47-8.15-11.84-7.95-17.76-24.49-17.76-49.64v-37.96h-12.17c-1.79,0-3.33-1.86-4.62-5.6-1.3-3.73-1.95-8.84-1.95-15.33s1.01-12.21,3.04-17.16c2.03-4.95,4.66-7.42,7.91-7.42h7.79v-29.44c0-5.03,4.9-9.08,14.72-12.17,9.81-3.08,19.43-4.62,28.84-4.62,14.76,0,22.14,3.65,22.14,10.95v35.28h18.01c4.22,0,6.33,6.08,6.33,18.25,0,7.95-.94,14.48-2.8,19.59-1.87,5.11-4.26,7.67-7.18,7.67h-14.36v44.53c0,4.38,1.86,7.51,5.6,9.37,3.73,1.87,7.02,2.8,9.85,2.8s4.58,1.38,5.23,4.14c.65,2.76.97,6.9.97,12.41,0,10.87-1.46,17.68-4.38,20.44Z"/>
        <path class="cls-3" d="M1863.67,248.86c0,10.55,5.03,15.82,15.09,15.82,5.84,0,13.46-1.99,22.87-5.96,9.41-3.97,14.36-5.96,14.84-5.96,3.08,0,7.14,4.62,12.17,13.87,5.03,9.25,7.54,16.06,7.54,20.44,0,6.33-6.49,11.11-19.47,14.36-12.98,3.24-25.67,4.87-38.08,4.87s-22.79-.97-31.15-2.92c-8.36-1.95-15.17-4.42-20.44-7.42-5.27-3-9.9-6.69-13.87-11.07-3.98-4.38-6.94-8.56-8.88-12.53-1.95-3.97-3.49-8.4-4.62-13.26-1.62-7.14-2.43-14.52-2.43-22.14,0-29.52,7.7-49.89,23.12-61.08,7.62-5.68,16.14-9.65,25.55-11.92,9.41-2.27,20.52-3.41,33.34-3.41,41.04,0,61.57,14.28,61.57,42.83,0,30.34-23.04,45.5-69.11,45.5h-8.03ZM1863.18,213.33v16.06c4.7,0,8.56-1.86,11.56-5.6,3-3.73,4.5-8.27,4.5-13.63,0-9.73-2.52-14.6-7.54-14.6-5.68,0-8.52,5.92-8.52,17.76Z"/>
      </g>
      <g>
        <path class="cls-8" d="M756.41,385.61h57.72v14.56h-19.77v60.06h-18.18v-60.06h-19.77v-14.56Z"/>
        <path class="cls-8" d="M869.72,429.51h-28.27v30.72h-18.18v-74.62h18.18v29.23h28.27v-29.23h18.18v74.62h-18.18v-30.72Z"/>
        <path class="cls-8" d="M946.68,400.17h-27.53v15.09h24.34v14.03h-24.34v16.37h27.53v14.56h-45.71v-74.62h45.71v14.56Z"/>
        <path class="cls-8" d="M1015.45,384.76c17.75,0,31.14,9.99,35.4,26.15h-19.98c-3.08-6.38-8.72-9.57-15.62-9.57-11.16,0-18.81,8.29-18.81,21.47s7.65,21.47,18.81,21.47c6.91,0,12.54-3.19,15.62-9.57h19.98c-4.25,16.16-17.64,26.04-35.4,26.04-22,0-37.52-15.62-37.52-37.95s15.52-38.05,37.52-38.05Z"/>
        <path class="cls-8" d="M1097.3,460.97c-21.15,0-38.37-15.84-38.37-38.27s17.22-38.16,38.37-38.16,38.16,15.73,38.16,38.16-17.01,38.27-38.16,38.27ZM1097.3,444.39c11.9,0,19.66-8.61,19.66-21.68s-7.76-21.68-19.66-21.68-19.77,8.4-19.77,21.68,7.65,21.68,19.77,21.68Z"/>
        <path class="cls-8" d="M1180.85,460.97c-21.15,0-38.37-15.84-38.37-38.27s17.22-38.16,38.37-38.16,38.16,15.73,38.16,38.16-17.01,38.27-38.16,38.27ZM1180.85,444.39c11.9,0,19.66-8.61,19.66-21.68s-7.76-21.68-19.66-21.68-19.77,8.4-19.77,21.68,7.65,21.68,19.77,21.68Z"/>
        <path class="cls-8" d="M1247.29,385.61v60.59h23.81v14.03h-41.99v-74.62h18.18Z"/>
        <path class="cls-8" d="M1325.52,400.17h-27.53v15.09h24.34v14.03h-24.34v16.37h27.53v14.56h-45.71v-74.62h45.71v14.56Z"/>
        <path class="cls-8" d="M1364.32,460.97c-16.05,0-28.59-7.97-29.12-23.07h19.35c.53,5.74,4.15,8.5,9.25,8.5s8.72-2.66,8.72-7.01c0-13.82-37.31-6.38-37.1-32.84,0-14.14,11.59-22,27.21-22s27.21,8.08,27.96,22.32h-19.66c-.32-4.78-3.72-7.65-8.61-7.76-4.36-.11-7.65,2.13-7.65,6.8,0,12.97,36.88,7.12,36.88,32.1,0,12.54-9.78,22.96-27.21,22.96Z"/>
        <path class="cls-8" d="M1398.65,385.61h57.72v14.56h-19.77v60.06h-18.18v-60.06h-19.77v-14.56Z"/>
        <path class="cls-8" d="M1517.49,433.44h-11.27v26.79h-18.18v-74.62h29.44c18.28,0,27.42,10.31,27.42,24.02,0,12.33-8.4,23.81-27.42,23.81ZM1516.11,418.98c7.23,0,10.31-3.61,10.31-9.35s-3.08-9.35-10.31-9.35h-9.89v18.71h9.89Z"/>
        <path class="cls-8" d="M1572.55,385.61v60.59h23.81v14.03h-41.99v-74.62h18.18Z"/>
        <path class="cls-8" d="M1651.53,447.04h-27.85l-4.46,13.18h-19.03l27-74.62h21.05l27,74.62h-19.24l-4.46-13.18ZM1637.61,405.7l-9.14,27.32h18.39l-9.25-27.32Z"/>
        <path class="cls-8" d="M1717.86,384.76c17.75,0,31.14,9.99,35.4,26.15h-19.98c-3.08-6.38-8.72-9.57-15.62-9.57-11.16,0-18.81,8.29-18.81,21.47s7.65,21.47,18.81,21.47c6.91,0,12.54-3.19,15.62-9.57h19.98c-4.25,16.16-17.64,26.04-35.4,26.04-22,0-37.52-15.62-37.52-37.95s15.52-38.05,37.52-38.05Z"/>
        <path class="cls-8" d="M1810.13,400.17h-27.53v15.09h24.34v14.03h-24.34v16.37h27.53v14.56h-45.71v-74.62h45.71v14.56Z"/>
      </g>
      <circle class="cls-3" cx="1883.31" cy="426.5" r="15.3" transform="translate(731.51 1976.38) rotate(-66.14)"/>
      <circle class="cls-3" cx="696.53" cy="426.5" r="15.3" transform="translate(24.75 891.01) rotate(-66.14)"/>
    </g>
  </g>
</svg>