<?xml version="1.0" encoding="UTF-8"?>
<svg id="Layer_2" data-name="Layer 2" xmlns="http://www.w3.org/2000/svg" viewBox="0 0 33.16 33.17">
  <defs>
    <style>
      .cls-1 {
        fill: #42bfdd;
      }
    </style>
  </defs>
  <g id="ELEMENTS">
    <path class="cls-1" d="M16.58,0C7.42,0,0,7.43,0,16.59s7.42,16.58,16.58,16.58,16.58-7.43,16.58-16.58S25.74,0,16.58,0ZM16.58,27.44c-1.27,0-2.29-1.03-2.29-2.29h4.58c0,1.26-1.03,2.29-2.29,2.29ZM25.13,23.73c0,.43-.35.78-.78.78h-15.54c-.43,0-.78-.35-.78-.78v-.98c0-.45.23-.87.6-1.13l.95-.64v-6.58c0-3.3,2.28-6.07,5.35-6.81h0c-.1-.91.55-1.74,1.45-1.85,1.01-.11,1.86.67,1.86,1.65,0,.07,0,.14-.01.2,1.27.31,2.41.96,3.3,1.86,1.27,1.26,2.05,3.01,2.05,4.95v6.58l.95.64c.37.26.6.68.6,1.13v.98Z"/>
  </g>
</svg>