<?xml version="1.0" encoding="UTF-8"?>
<svg id="Layer_2" data-name="Layer 2" xmlns="http://www.w3.org/2000/svg" viewBox="0 0 33.16 33.16">
  <defs>
    <style>
      .cls-1 {
        fill: #ff66b3;
      }
    </style>
  </defs>
  <g id="ELEMENTS">
    <path class="cls-1" d="M16.58,0C7.42,0,0,7.42,0,16.58s7.42,16.58,16.58,16.58,16.58-7.42,16.58-16.58S25.73,0,16.58,0ZM16.58,27.43c-1.27,0-2.29-1.02-2.29-2.29h4.58c0,1.27-1.03,2.29-2.29,2.29ZM25.12,23.73c0,.43-.35.78-.78.78h-15.53c-.43,0-.78-.35-.78-.78v-.98c0-.45.22-.88.6-1.13l.94-.64v-6.59c0-3.3,2.28-6.06,5.36-6.8,0-.01-.01-.01-.01-.01-.1-.91.55-1.73,1.45-1.84,1.01-.12,1.87.67,1.87,1.65,0,.07-.01.13-.01.2,1.27.3,2.4.96,3.3,1.85,1.27,1.27,2.05,3.02,2.05,4.95v6.59l.94.64c.38.25.6.68.6,1.13v.98Z"/>
  </g>
</svg>