<?xml version="1.0" encoding="UTF-8"?>
<svg id="Layer_2" data-name="Layer 2" xmlns="http://www.w3.org/2000/svg" viewBox="0 0 33.16 33.16">
  <defs>
    <style>
      .cls-1 {
        fill: #ff66b3;
      }
    </style>
  </defs>
  <g id="ELEMENTS">
    <g>
      <path class="cls-1" d="M15.58,10.1c-2.9,0-5.26,2.36-5.26,5.26s2.36,5.26,5.26,5.26,5.26-2.36,5.26-5.26-2.36-5.26-5.26-5.26Z"/>
      <path class="cls-1" d="M16.58,0C7.42,0,0,7.42,0,16.58s7.42,16.58,16.58,16.58,16.58-7.42,16.58-16.58S25.74,0,16.58,0ZM25.11,25.02c-.22.22-.52.34-.81.34s-.59-.11-.81-.34l-3.51-3.51c-1.24.89-2.76,1.42-4.4,1.42-4.17,0-7.56-3.39-7.56-7.56s3.39-7.56,7.56-7.56,7.56,3.39,7.56,7.56c0,1.7-.57,3.28-1.52,4.54l3.49,3.49c.45.45.45,1.18,0,1.63Z"/>
    </g>
  </g>
</svg>