<?xml version="1.0" encoding="UTF-8"?>
<svg id="Layer_2" data-name="Layer 2" xmlns="http://www.w3.org/2000/svg" viewBox="0 0 33.16 33.16">
  <defs>
    <style>
      .cls-1 {
        fill: #fff;
        stroke: #fff;
        stroke-miterlimit: 10;
        stroke-width: .55px;
      }
    </style>
  </defs>
  <path class="cls-1" d="M1.13,20.4c.21-.55.61-1.11,1.24-1.2.48-.07,1.06.17,1.35-.34.63-1.14-.12-1.06-.55-1.79-.22-.38-.24-.91-.09-1.32s1.77-2.09,2.18-2.28c.61-.3,1.22-.19,1.73.22.21.17.49.59.77.62.14.02.79-.24.91-.33.32-.24.15-.84.2-1.19.07-.54.59-1.16,1.14-1.27.48-.1,2.1-.08,2.63-.03.64.06,1.26.59,1.35,1.24.06.46-.16.96.29,1.28,1.11.79,1.2-.24,2.05-.58.43-.17.8-.17,1.23.02.32.14,1.73,1.54,1.99,1.87.52.66.45,1.41-.06,2.05-.21.26-.65.47-.58.88.02.11.2.54.27.64.29.48.78.27,1.25.32.64.07,1.22.66,1.3,1.29.07.58.06,1.88,0,2.47-.06.66-.65,1.26-1.3,1.35-.35.05-.95-.12-1.19.2-.11.14-.36.74-.33.9.05.3.45.55.62.77.39.48.5,1.01.26,1.59-.2.5-1.83,2.14-2.33,2.31-.44.15-.92.13-1.33-.09-.72-.41-.72-1.15-1.75-.57-.57.32-.31.84-.39,1.36-.09.63-.65,1.03-1.2,1.24h-2.66c-.61-.19-1.16-.65-1.25-1.31s.25-1-.52-1.35c-.99-.45-.89.21-1.59.6-.78.44-1.43.18-2.04-.35s-1.77-1.59-1.76-2.43.51-.98.88-1.52c.22-.32.03-.84-.19-1.14-.26-.36-.76-.18-1.16-.23-.69-.08-1.17-.63-1.36-1.26v-2.65ZM20.54,23.15c.07-.07.13-.21.14-.31.06-.47.04-1.63,0-2.11-.06-.7-.61-.46-1.11-.52-1.23-.13-2.05-1.66-1.56-2.74.26-.56,1.17-.83.7-1.52-.17-.24-1.16-1.22-1.41-1.42-.72-.56-.96.29-1.47.59-.44.26-.82.26-1.3.12-.85-.24-1.48-.69-1.58-1.62-.04-.39.14-1.02-.4-1.1-.4-.06-1.82-.06-2.23,0-.65.08-.39.94-.48,1.39-.22,1.14-1.99,1.79-2.95,1.13-.47-.32-.67-1.01-1.34-.53-.23.17-1.21,1.15-1.39,1.38-.52.7.41,1,.68,1.61.39.87-.2,2.33-1.13,2.63-.55.18-1.47-.15-1.56.55-.06.43-.05,1.54,0,1.99.08.87.73.56,1.34.65,1.17.17,1.88,1.98,1.22,2.93-.26.38-.93.66-.63,1.24.35.23,1.44,1.6,1.72,1.65.56.11.77-.46,1.16-.71.98-.64,2.77.12,2.91,1.29.06.5-.18,1.18.53,1.28.42.06,1.62.06,2.05,0,.77-.09.42-.94.59-1.52.28-.95,1.77-1.59,2.65-1.18.63.3.88,1.17,1.61.67.21-.15,1.24-1.17,1.39-1.38.51-.72-.38-.96-.65-1.52-.49-.97.22-2.64,1.35-2.78.34-.04.89.09,1.15-.14Z"/>
  <path class="cls-1" d="M32.03,16.91c-.28.84-.79,1.19-1.66,1.26-.4.03-1.65-.11-1.87.12-.08.09-.62,1.35-.68,1.55-.1.31-.08.38.11.65.67.93,2.38,1.68,1.24,3.16-.32.41-2.12,2.23-2.51,2.49-.42.28-.91.34-1.38.18-.42-.14-2.02-1.66-2.29-2.05-.33-.48.03-1.06.59-.83l1.83,1.79c.28.17.45.2.72,0,.35-.25,1.94-1.85,2.2-2.2.24-.32.2-.46-.03-.75-.58-.75-1.67-1.22-1.56-2.34.03-.29.62-1.75.79-2.04.64-1.15,1.86-.63,2.9-.78.32-.05.53-.16.59-.5.09-.59.06-2.38,0-3.01-.04-.46-.18-.58-.64-.63-.89-.09-1.97.27-2.66-.48-.25-.28-1-2.12-1-2.5,0-.3.13-.66.31-.9.3-.4,1.22-1.05,1.39-1.44.12-.26.06-.37-.09-.58-.29-.39-1.81-1.91-2.2-2.2-.32-.24-.46-.2-.75.03-.69.53-1.19,1.57-2.17,1.57-.36,0-2.09-.69-2.4-.92-.9-.66-.48-1.85-.59-2.78-.05-.43-.2-.54-.62-.58-.71-.07-2.19-.07-2.9,0-.47.04-.59.25-.63.7-.1,1.02.35,2.17-.77,2.79-.26.15-1.62.72-1.89.77-1.24.23-1.7-.92-2.51-1.54-.3-.23-.43-.27-.75-.03-.35.26-1.96,1.85-2.2,2.2-.19.27-.16.45,0,.72l1.79,1.82c.15.62-.36.93-.89.52-.42-.32-1.8-1.74-1.97-2.19-.19-.5-.12-1.02.19-1.46s2.02-2.12,2.47-2.47c.64-.49,1.38-.43,1.99.06.38.31,1.18,1.4,1.64,1.35.31-.21,1.64-.57,1.79-.81s.04-1.42.07-1.8c.07-.85.51-1.56,1.42-1.66.7-.08,2.87-.09,3.53.03.42.07.89.41,1.08.79.38.77.07,1.69.19,2.46.04.26.27.33.48.42s1.34.57,1.47.57c.37-.02,1.12-.99,1.45-1.26.63-.53,1.24-.67,1.98-.23.43.26,2.4,2.23,2.65,2.66.91,1.58-.76,2.12-1.4,3.08-.1.15-.13.27-.09.45.03.12.64,1.57.7,1.64s.19.15.28.16c1.23.2,2.8-.48,3.29,1.27v3.67Z"/>
  <path class="cls-1" d="M17.35,8.44c6.03-.53,9.83,6.33,5.92,10.91-.28.33-.89.97-1.23.33-.25-.47.22-.7.45-.99,4.18-5.48-2.43-11.99-7.68-8.21-.33.24-1.18,1.21-1.5.46-.18-.42.24-.76.53-1.01.9-.76,2.34-1.39,3.52-1.49Z"/>
  <path class="cls-1" d="M10.77,17.17c3.31-.37,5.82,2.38,5.16,5.63-.9,4.42-7.23,4.82-8.83.58-1.03-2.72.75-5.89,3.67-6.22ZM10.89,18.19c-4.46.53-3.85,7.58.88,7.14,4.69-.44,4.1-7.74-.88-7.14Z"/>
</svg>