<?xml version="1.0" encoding="UTF-8"?>
<svg id="Layer_2" data-name="Layer 2" xmlns="http://www.w3.org/2000/svg" viewBox="0 0 33.16 33.16">
  <defs>
    <style>
      .cls-1 {
        fill: #fff;
      }
    </style>
  </defs>
  <path class="cls-1" d="M19.96,21.12c1.66,1.64,3.31,3.3,4.96,4.95.43.4,1.1-.08.82-.61l-1.76-1.78-.02-.11,3.1-2.4c.5-.39,1.13-.49,1.71-.23l3.83,2.79v4.55c-.15.65-.72,1.11-1.39,1.14H7.96c-.67-.04-1.26-.54-1.34-1.22v-6.13s6.94-5.87,6.94-5.87c.53-.32,1.06-.27,1.55.1,1.6,1.62,3.23,3.21,4.85,4.81Z"/>
  <path class="cls-1" d="M32.6,22.47l-3.38-2.45c-.79-.37-1.73-.33-2.47.12l-3.49,2.69-.1.02-2.33-2.32c-1.76-1.47-3.29-3.53-5.03-4.99-.86-.72-1.98-.76-2.9-.12l-6.21,5.26c-.08.02-.07-.03-.08-.09-.07-.25.02-.72.02-1,.03-2.92-.1-5.87-.04-8.78.01-.64.47-1.18,1.06-1.37l23.83-.02c.43.03,1.13.66,1.13,1.09v11.96ZM27.42,13.23c-1.41-1.41-3.9-.82-4.51,1.07-.77,2.38,1.75,4.48,3.93,3.24,1.56-.88,1.85-3.04.58-4.31Z"/>
  <path class="cls-1" d="M4.59,26.56c-.53-.09-1.08-.75-1.09-1.3V7.9c.08-.77.62-1.28,1.39-1.34h23.29c.94.09,1.45.86,1.35,1.77l-.11.05-21.25-.02c-1.22-.1-2.62,1.03-2.62,2.28v15.93c-.29-.03-.68.05-.96,0Z"/>
  <path class="cls-1" d="M26.58,5.53H4.64c-.9,0-2.15,1.2-2.15,2.11v16.1h-.79c-.46,0-1.15-.77-1.13-1.26V5c.08-.69.65-1.21,1.34-1.26h23.38c.92.1,1.4.91,1.3,1.79Z"/>
  <path class="cls-1" d="M25.34,13.48c2.35-.2,2.47,3.38.16,3.4-2.09.02-2.29-3.22-.16-3.4Z"/>
</svg>