<?xml version="1.0" encoding="UTF-8"?>
<svg id="Layer_2" data-name="Layer 2" xmlns="http://www.w3.org/2000/svg" viewBox="0 0 33.16 33.16">
  <defs>
    <style>
      .cls-1 {
        fill: #084b83;
      }
    </style>
  </defs>
  <g id="ELEMENTS">
    <g>
      <path class="cls-1" d="M22.28,15.31h-4.48v-4.48c0-.64-.51-1.15-1.15-1.15s-1.15.51-1.15,1.15v4.48h-4.48c-.64,0-1.15.51-1.15,1.15s.51,1.15,1.15,1.15h4.48v4.48c0,.64.51,1.15,1.15,1.15s1.15-.51,1.15-1.15v-4.48h4.48c.64,0,1.15-.51,1.15-1.15s-.51-1.15-1.15-1.15Z"/>
      <path class="cls-1" d="M16.58,0C7.42,0,0,7.42,0,16.58s7.42,16.58,16.58,16.58,16.58-7.42,16.58-16.58S25.74,0,16.58,0ZM25.3,21.91c0,1.82-1.49,3.31-3.31,3.31h-10.67c-1.82,0-3.31-1.49-3.31-3.31v-10.67c0-1.82,1.49-3.31,3.31-3.31h10.67c1.82,0,3.31,1.49,3.31,3.31v10.67Z"/>
    </g>
  </g>
</svg>