<?xml version="1.0" encoding="UTF-8"?>
<svg id="Layer_2" data-name="Layer 2" xmlns="http://www.w3.org/2000/svg" viewBox="0 0 33.16 33.16">
  <defs>
    <style>
      .cls-1 {
        fill: #084b83;
      }
    </style>
  </defs>
  <g id="ELEMENTS">
    <path class="cls-1" d="M16.58,0C7.42,0,0,7.42,0,16.58s7.42,16.58,16.58,16.58,16.58-7.42,16.58-16.58S25.74,0,16.58,0ZM16.58,6.73c2.29,0,4.14,1.85,4.14,4.14s-1.85,4.14-4.14,4.14-4.14-1.85-4.14-4.14,1.85-4.14,4.14-4.14ZM22.25,26.43h-11.33c-1.11,0-2.02-.9-2.02-2.02,0-4.24,3.44-7.68,7.68-7.68s7.68,3.44,7.68,7.68c0,1.11-.9,2.02-2.02,2.02Z"/>
  </g>
</svg>