<?xml version="1.0" encoding="UTF-8"?>
<svg id="Layer_2" data-name="Layer 2" xmlns="http://www.w3.org/2000/svg" viewBox="0 0 33.16 33.16">
  <defs>
    <style>
      .cls-1 {
        fill: #084b83;
      }
    </style>
  </defs>
  <g id="ELEMENTS">
    <path class="cls-1" d="M16.58,0C7.42,0,0,7.42,0,16.58s7.42,16.58,16.58,16.58,16.58-7.42,16.58-16.58S25.74,0,16.58,0ZM7.19,16.8c-2.29-1.12-1.97-4.48.5-5.14l13.62-3.65c.59-.16,1.16-.11,1.67.08l-10.88,10.88-4.91-2.16ZM24.68,11.38l-3.65,13.62c-.66,2.46-4.02,2.79-5.14.5l-2.16-4.91,10.88-10.88c.19.51.24,1.08.08,1.67Z"/>
  </g>
</svg>