<?xml version="1.0" encoding="UTF-8"?>
<svg id="Layer_2" data-name="Layer 2" xmlns="http://www.w3.org/2000/svg" viewBox="0 0 33.16 33.16">
  <defs>
    <style>
      .cls-1 {
        fill: #084b83;
      }
    </style>
  </defs>
  <g id="ELEMENTS">
    <path class="cls-1" d="M16.58,0C7.42,0,0,7.42,0,16.58s7.42,16.58,16.58,16.58,16.58-7.42,16.58-16.58S25.73,0,16.58,0ZM27.3,17.71c-.03.28-.42.44-.65.56-.72.36-1.52.6-2.26.92-.03.02-.04.05-.06.08-.04.07-.33.74-.34.81-.01.05-.01.1.01.15.32.7.72,1.42.97,2.14.08.24.18.48.11.73-.52.47-1,1.08-1.53,1.54-.1.08-.25.23-.37.25-.19.03-.54-.1-.74-.16-.74-.24-1.46-.6-2.2-.88-.08,0-.92.33-.97.37-.08.06-.31.76-.37.92-.18.45-.36.95-.58,1.38-.07.16-.24.53-.42.57-.79-.04-1.68.08-2.46.01-.33-.03-.55-.63-.69-.91-.3-.63-.54-1.3-.81-1.95l-.94-.39c-.78.28-1.51.69-2.29.95-.24.09-.58.25-.82.09l-1.72-1.69c-.15-.22.06-.72.15-.96.25-.71.59-1.38.87-2.07l-.38-.92c-.79-.36-1.66-.57-2.43-.96-.2-.1-.43-.2-.52-.42.04-.75-.08-1.6-.01-2.33.03-.37.49-.52.79-.67.69-.33,1.44-.56,2.14-.87.03-.03.37-.8.38-.87.01-.06.01-.09-.01-.15-.1-.37-.5-1.03-.67-1.43-.13-.31-.47-1.05-.43-1.36.02-.19.18-.24.29-.35.4-.41.93-1.03,1.37-1.37.07-.06.16-.14.25-.15.24-.04.7.15.95.23.68.23,1.33.54,2,.81.34-.08.64-.27.97-.37.28-.58.47-1.22.73-1.81.09-.22.38-.89.54-1.01.06-.04.17-.07.23-.08.48-.07,1.7-.05,2.19,0,.42.04.52.3.69.63.37.72.61,1.5.95,2.23l.97.42c.83-.3,1.71-.84,2.55-1.06.31-.08.39-.1.65.1.53.42,1.01,1.11,1.57,1.54.2.27-.02.74-.12,1.03-.24.7-.59,1.38-.87,2.06l.41.96c.74.29,1.55.52,2.27.86.24.11.63.26.66.55-.06.73.09,1.6,0,2.31ZM16.4,12.98c-3.25.16-4.75,4.14-2.25,6.32,1.7,1.46,4.36,1.08,5.55-.82,1.58-2.51-.42-5.64-3.3-5.5Z"/>
  </g>
</svg>