<?xml version="1.0" encoding="UTF-8"?>
<svg id="Layer_2" data-name="Layer 2" xmlns="http://www.w3.org/2000/svg" viewBox="0 0 33.16 33.16">
  <defs>
    <style>
      .cls-1 {
        fill: #084b83;
      }
    </style>
  </defs>
  <g id="ELEMENTS">
    <g>
      <path class="cls-1" d="M17.66,22.2h-2.09c-.64,0-1.15.51-1.15,1.15s.52,1.15,1.15,1.15h2.09c.64,0,1.15-.51,1.15-1.15s-.51-1.15-1.15-1.15Z"/>
      <path class="cls-1" d="M16.58,0C7.42,0,0,7.42,0,16.58s7.42,16.58,16.58,16.58,16.58-7.42,16.58-16.58S25.74,0,16.58,0ZM23.26,20.8v3.19c0,1.32-1.07,2.4-2.4,2.4h-8.5c-1.32,0-2.4-1.07-2.4-2.4v-14.82c0-1.32,1.07-2.4,2.4-2.4h8.5c1.32,0,2.4,1.07,2.4,2.4v11.63Z"/>
    </g>
  </g>
</svg>