<?xml version="1.0" encoding="UTF-8"?>
<svg id="Layer_2" data-name="Layer 2" xmlns="http://www.w3.org/2000/svg" viewBox="0 0 132.62 132.62">
  <defs>
    <style>
      .cls-1 {
        opacity: .41;
      }

      .cls-2 {
        fill: #f0f6f6;
      }
    </style>
  </defs>
  <g id="Layer_1-2" data-name="Layer 1">
    <g class="cls-1">
      <g>
        <polygon class="cls-2" points="11.24 15.63 11.43 15.44 9.28 13.29 11.43 11.15 4.95 4.67 0 9.61 0 13.94 4.77 9.17 11.24 15.63"/>
        <polygon class="cls-2" points="24.39 11.15 17.91 4.67 11.43 11.15 9.28 13.29 11.43 15.44 11.45 15.46 17.74 9.17 24.2 15.63 24.39 15.44 22.24 13.29 24.39 11.15"/>
        <polygon class="cls-2" points="37.35 11.15 30.87 4.67 24.39 11.15 22.24 13.29 24.39 15.44 24.41 15.46 30.7 9.17 37.16 15.63 37.35 15.44 35.2 13.29 37.35 11.15"/>
        <polygon class="cls-2" points="50.31 11.15 43.83 4.67 37.35 11.15 35.2 13.29 37.35 15.44 37.37 15.46 43.66 9.17 50.12 15.63 50.31 15.44 48.16 13.29 50.31 11.15"/>
        <polygon class="cls-2" points="63.27 11.15 56.79 4.67 50.31 11.15 48.16 13.29 50.31 15.44 50.33 15.46 56.62 9.17 63.08 15.63 63.27 15.44 61.12 13.29 63.27 11.15"/>
        <polygon class="cls-2" points="76.23 11.15 69.75 4.67 63.27 11.15 61.12 13.29 63.27 15.44 63.29 15.46 69.58 9.17 76.04 15.63 76.23 15.44 74.09 13.29 76.23 11.15"/>
        <polygon class="cls-2" points="89.19 11.15 82.71 4.67 76.23 11.15 74.09 13.29 76.23 15.44 76.25 15.46 82.54 9.17 89 15.63 89.19 15.44 87.05 13.29 89.19 11.15"/>
        <polygon class="cls-2" points="102.15 11.15 95.67 4.67 89.19 11.15 87.05 13.29 89.19 15.44 89.21 15.46 95.5 9.17 101.96 15.63 102.15 15.44 100.01 13.29 102.15 11.15"/>
        <polygon class="cls-2" points="115.11 11.15 108.63 4.67 102.15 11.15 100.01 13.29 102.15 15.44 102.17 15.46 108.46 9.17 114.92 15.63 115.11 15.44 112.97 13.29 115.11 11.15"/>
        <polygon class="cls-2" points="128.08 11.15 121.59 4.67 115.11 11.15 112.97 13.29 115.11 15.44 115.13 15.46 121.42 9.17 127.88 15.63 128.08 15.44 125.93 13.29 128.08 11.15"/>
        <polygon class="cls-2" points="125.93 13.29 128.08 15.44 128.09 15.46 132.62 10.93 132.62 6.6 128.08 11.15 125.93 13.29"/>
        <polygon class="cls-2" points="127.68 6.99 132.62 2.04 132.62 0 130.33 0 127.85 2.49 125.36 0 121.7 0 121.19 .51 127.68 6.99"/>
        <polygon class="cls-2" points="114.71 6.99 121.19 .51 121.7 0 117.37 0 114.89 2.49 112.4 0 108.74 0 108.23 .51 114.71 6.99"/>
        <polygon class="cls-2" points="101.75 6.99 108.23 .51 108.74 0 104.41 0 101.92 2.49 99.44 0 95.78 0 95.27 .51 101.75 6.99"/>
        <polygon class="cls-2" points="88.79 6.99 95.27 .51 95.78 0 91.45 0 88.96 2.49 86.48 0 82.82 0 82.31 .51 88.79 6.99"/>
        <polygon class="cls-2" points="75.83 6.99 82.31 .51 82.82 0 78.49 0 76 2.49 73.52 0 69.86 0 69.35 .51 75.83 6.99"/>
        <polygon class="cls-2" points="62.87 6.99 69.35 .51 69.86 0 65.53 0 63.04 2.49 60.56 0 56.9 0 56.39 .51 62.87 6.99"/>
        <polygon class="cls-2" points="49.91 6.99 56.39 .51 56.9 0 52.57 0 50.08 2.49 47.59 0 43.93 0 43.43 .51 49.91 6.99"/>
        <polygon class="cls-2" points="36.95 6.99 43.43 .51 43.93 0 39.61 0 37.12 2.49 34.63 0 30.97 0 30.47 .51 36.95 6.99"/>
        <polygon class="cls-2" points="23.99 6.99 30.47 .51 30.97 0 26.64 0 24.16 2.49 21.67 0 18.01 0 17.51 .51 23.99 6.99"/>
        <polygon class="cls-2" points="11.03 6.99 17.51 .51 18.01 0 13.68 0 11.2 2.49 8.71 0 5.05 0 4.55 .51 11.03 6.99"/>
        <polygon class="cls-2" points="5.05 0 .72 0 0 .72 0 5.05 4.55 .51 5.05 0"/>
        <polygon class="cls-2" points="11.24 24.27 11.43 24.08 9.28 21.93 11.43 19.79 4.95 13.31 0 18.25 0 22.58 4.77 17.81 11.24 24.27"/>
        <polygon class="cls-2" points="24.39 19.79 17.91 13.31 11.43 19.79 9.28 21.93 11.43 24.08 11.45 24.1 17.74 17.81 24.2 24.27 24.39 24.08 22.24 21.93 24.39 19.79"/>
        <polygon class="cls-2" points="37.35 19.79 30.87 13.31 24.39 19.79 22.24 21.93 24.39 24.08 24.41 24.1 30.7 17.81 37.16 24.27 37.35 24.08 35.2 21.93 37.35 19.79"/>
        <polygon class="cls-2" points="50.31 19.79 43.83 13.31 37.35 19.79 35.2 21.93 37.35 24.08 37.37 24.1 43.66 17.81 50.12 24.27 50.31 24.08 48.16 21.93 50.31 19.79"/>
        <polygon class="cls-2" points="63.27 19.79 56.79 13.31 50.31 19.79 48.16 21.93 50.31 24.08 50.33 24.1 56.62 17.81 63.08 24.27 63.27 24.08 61.12 21.93 63.27 19.79"/>
        <polygon class="cls-2" points="76.23 19.79 69.75 13.31 63.27 19.79 61.12 21.93 63.27 24.08 63.29 24.1 69.58 17.81 76.04 24.27 76.23 24.08 74.09 21.93 76.23 19.79"/>
        <polygon class="cls-2" points="89.19 19.79 82.71 13.31 76.23 19.79 74.09 21.93 76.23 24.08 76.25 24.1 82.54 17.81 89 24.27 89.19 24.08 87.05 21.93 89.19 19.79"/>
        <polygon class="cls-2" points="102.15 19.79 95.67 13.31 89.19 19.79 87.05 21.93 89.19 24.08 89.21 24.1 95.5 17.81 101.96 24.27 102.15 24.08 100.01 21.93 102.15 19.79"/>
        <polygon class="cls-2" points="115.11 19.79 108.63 13.31 102.15 19.79 100.01 21.93 102.15 24.08 102.17 24.1 108.46 17.81 114.92 24.27 115.11 24.08 112.97 21.93 115.11 19.79"/>
        <polygon class="cls-2" points="128.08 19.79 121.59 13.31 115.11 19.79 112.97 21.93 115.11 24.08 115.13 24.1 121.42 17.81 127.88 24.27 128.08 24.08 125.93 21.93 128.08 19.79"/>
        <polygon class="cls-2" points="125.93 21.93 128.08 24.08 128.09 24.1 132.62 19.57 132.62 15.24 128.08 19.79 125.93 21.93"/>
        <polygon class="cls-2" points="11.24 41.55 11.43 41.36 9.28 39.21 11.43 37.07 4.95 30.59 0 35.53 0 39.86 4.77 35.09 11.24 41.55"/>
        <polygon class="cls-2" points="24.39 37.07 17.91 30.59 11.43 37.07 9.28 39.21 11.43 41.36 11.45 41.38 17.74 35.09 24.2 41.55 24.39 41.36 22.24 39.21 24.39 37.07"/>
        <polygon class="cls-2" points="37.35 37.07 30.87 30.59 24.39 37.07 22.24 39.21 24.39 41.36 24.41 41.38 30.7 35.09 37.16 41.55 37.35 41.36 35.2 39.21 37.35 37.07"/>
        <polygon class="cls-2" points="50.31 37.07 43.83 30.59 37.35 37.07 35.2 39.21 37.35 41.36 37.37 41.38 43.66 35.09 50.12 41.55 50.31 41.36 48.16 39.21 50.31 37.07"/>
        <polygon class="cls-2" points="63.27 37.07 56.79 30.59 50.31 37.07 48.16 39.21 50.31 41.36 50.33 41.38 56.62 35.09 63.08 41.55 63.27 41.36 61.12 39.21 63.27 37.07"/>
        <polygon class="cls-2" points="76.23 37.07 69.75 30.59 63.27 37.07 61.12 39.21 63.27 41.36 63.29 41.38 69.58 35.09 76.04 41.55 76.23 41.36 74.09 39.21 76.23 37.07"/>
        <polygon class="cls-2" points="89.19 37.07 82.71 30.59 76.23 37.07 74.09 39.21 76.23 41.36 76.25 41.38 82.54 35.09 89 41.55 89.19 41.36 87.05 39.21 89.19 37.07"/>
        <polygon class="cls-2" points="102.15 37.07 95.67 30.59 89.19 37.07 87.05 39.21 89.19 41.36 89.21 41.38 95.5 35.09 101.96 41.55 102.15 41.36 100.01 39.21 102.15 37.07"/>
        <polygon class="cls-2" points="115.11 37.07 108.63 30.59 102.15 37.07 100.01 39.21 102.15 41.36 102.17 41.38 108.46 35.09 114.92 41.55 115.11 41.36 112.97 39.21 115.11 37.07"/>
        <polygon class="cls-2" points="128.08 37.07 121.59 30.59 115.11 37.07 112.97 39.21 115.11 41.36 115.13 41.38 121.42 35.09 127.88 41.55 128.08 41.36 125.93 39.21 128.08 37.07"/>
        <polygon class="cls-2" points="125.93 39.21 128.08 41.36 128.09 41.38 132.62 36.85 132.62 32.52 128.08 37.07 125.93 39.21"/>
        <polygon class="cls-2" points="121.38 21.95 121.19 22.14 123.34 24.28 121.19 26.43 127.68 32.91 132.62 27.96 132.62 23.63 127.85 28.41 121.38 21.95"/>
        <polygon class="cls-2" points="121.19 22.14 121.17 22.12 114.89 28.41 108.42 21.95 108.23 22.14 110.38 24.28 108.23 26.43 114.71 32.91 121.19 26.43 123.34 24.28 121.19 22.14"/>
        <polygon class="cls-2" points="108.23 22.14 108.21 22.12 101.92 28.41 95.46 21.95 95.27 22.14 97.42 24.28 95.27 26.43 101.75 32.91 108.23 26.43 110.38 24.28 108.23 22.14"/>
        <polygon class="cls-2" points="95.27 22.14 95.25 22.12 88.96 28.41 82.5 21.95 82.31 22.14 84.46 24.28 82.31 26.43 88.79 32.91 95.27 26.43 97.42 24.28 95.27 22.14"/>
        <polygon class="cls-2" points="82.31 22.14 82.29 22.12 76 28.41 69.54 21.95 69.35 22.14 71.5 24.28 69.35 26.43 75.83 32.91 82.31 26.43 84.46 24.28 82.31 22.14"/>
        <polygon class="cls-2" points="69.35 22.14 69.33 22.12 63.04 28.41 56.58 21.95 56.39 22.14 58.53 24.28 56.39 26.43 62.87 32.91 69.35 26.43 71.5 24.28 69.35 22.14"/>
        <polygon class="cls-2" points="56.39 22.14 56.37 22.12 50.08 28.41 43.62 21.95 43.43 22.14 45.57 24.28 43.43 26.43 49.91 32.91 56.39 26.43 58.53 24.28 56.39 22.14"/>
        <polygon class="cls-2" points="43.43 22.14 43.41 22.12 37.12 28.41 30.66 21.95 30.47 22.14 32.61 24.28 30.47 26.43 36.95 32.91 43.43 26.43 45.57 24.28 43.43 22.14"/>
        <polygon class="cls-2" points="30.47 22.14 30.45 22.12 24.16 28.41 17.7 21.95 17.51 22.14 19.65 24.28 17.51 26.43 23.99 32.91 30.47 26.43 32.61 24.28 30.47 22.14"/>
        <polygon class="cls-2" points="17.51 22.14 17.49 22.12 11.2 28.41 4.74 21.95 4.55 22.14 6.69 24.28 4.55 26.43 11.03 32.91 17.51 26.43 19.65 24.28 17.51 22.14"/>
        <polygon class="cls-2" points="6.69 24.28 4.55 22.14 4.53 22.12 0 26.64 0 30.97 4.55 26.43 6.69 24.28"/>
        <polygon class="cls-2" points="11.24 50.19 11.43 50 9.28 47.85 11.43 45.71 4.95 39.23 0 44.17 0 48.5 4.77 43.73 11.24 50.19"/>
        <polygon class="cls-2" points="24.39 45.71 17.91 39.23 11.43 45.71 9.28 47.85 11.43 50 11.45 50.02 17.74 43.73 24.2 50.19 24.39 50 22.24 47.85 24.39 45.71"/>
        <polygon class="cls-2" points="37.35 45.71 30.87 39.23 24.39 45.71 22.24 47.85 24.39 50 24.41 50.02 30.7 43.73 37.16 50.19 37.35 50 35.2 47.85 37.35 45.71"/>
        <polygon class="cls-2" points="50.31 45.71 43.83 39.23 37.35 45.71 35.2 47.85 37.35 50 37.37 50.02 43.66 43.73 50.12 50.19 50.31 50 48.16 47.85 50.31 45.71"/>
        <polygon class="cls-2" points="63.27 45.71 56.79 39.23 50.31 45.71 48.16 47.85 50.31 50 50.33 50.02 56.62 43.73 63.08 50.19 63.27 50 61.12 47.85 63.27 45.71"/>
        <polygon class="cls-2" points="76.23 45.71 69.75 39.23 63.27 45.71 61.12 47.85 63.27 50 63.29 50.02 69.58 43.73 76.04 50.19 76.23 50 74.09 47.85 76.23 45.71"/>
        <polygon class="cls-2" points="89.19 45.71 82.71 39.23 76.23 45.71 74.09 47.85 76.23 50 76.25 50.02 82.54 43.73 89 50.19 89.19 50 87.05 47.85 89.19 45.71"/>
        <polygon class="cls-2" points="102.15 45.71 95.67 39.23 89.19 45.71 87.05 47.85 89.19 50 89.21 50.02 95.5 43.73 101.96 50.19 102.15 50 100.01 47.85 102.15 45.71"/>
        <polygon class="cls-2" points="115.11 45.71 108.63 39.23 102.15 45.71 100.01 47.85 102.15 50 102.17 50.02 108.46 43.73 114.92 50.19 115.11 50 112.97 47.85 115.11 45.71"/>
        <polygon class="cls-2" points="128.08 45.71 121.59 39.23 115.11 45.71 112.97 47.85 115.11 50 115.13 50.02 121.42 43.73 127.88 50.19 128.08 50 125.93 47.85 128.08 45.71"/>
        <polygon class="cls-2" points="125.93 47.85 128.08 50 128.09 50.02 132.62 45.49 132.62 41.16 128.08 45.71 125.93 47.85"/>
        <polygon class="cls-2" points="11.24 67.47 11.43 67.28 9.28 65.13 11.43 62.99 4.95 56.51 0 61.46 0 65.78 4.77 61.01 11.24 67.47"/>
        <polygon class="cls-2" points="24.39 62.99 17.91 56.51 11.43 62.99 9.28 65.13 11.43 67.28 11.45 67.3 17.74 61.01 24.2 67.47 24.39 67.28 22.24 65.13 24.39 62.99"/>
        <polygon class="cls-2" points="37.35 62.99 30.87 56.51 24.39 62.99 22.24 65.13 24.39 67.28 24.41 67.3 30.7 61.01 37.16 67.47 37.35 67.28 35.2 65.13 37.35 62.99"/>
        <polygon class="cls-2" points="50.31 62.99 43.83 56.51 37.35 62.99 35.2 65.13 37.35 67.28 37.37 67.3 43.66 61.01 50.12 67.47 50.31 67.28 48.16 65.13 50.31 62.99"/>
        <polygon class="cls-2" points="63.27 62.99 56.79 56.51 50.31 62.99 48.16 65.13 50.31 67.28 50.33 67.3 56.62 61.01 63.08 67.47 63.27 67.28 61.12 65.13 63.27 62.99"/>
        <polygon class="cls-2" points="76.23 62.99 69.75 56.51 63.27 62.99 61.12 65.13 63.27 67.28 63.29 67.3 69.58 61.01 76.04 67.47 76.23 67.28 74.09 65.13 76.23 62.99"/>
        <polygon class="cls-2" points="89.19 62.99 82.71 56.51 76.23 62.99 74.09 65.13 76.23 67.28 76.25 67.3 82.54 61.01 89 67.47 89.19 67.28 87.05 65.13 89.19 62.99"/>
        <polygon class="cls-2" points="102.15 62.99 95.67 56.51 89.19 62.99 87.05 65.13 89.19 67.28 89.21 67.3 95.5 61.01 101.96 67.47 102.15 67.28 100.01 65.13 102.15 62.99"/>
        <polygon class="cls-2" points="115.11 62.99 108.63 56.51 102.15 62.99 100.01 65.13 102.15 67.28 102.17 67.3 108.46 61.01 114.92 67.47 115.11 67.28 112.97 65.13 115.11 62.99"/>
        <polygon class="cls-2" points="128.08 62.99 121.59 56.51 115.11 62.99 112.97 65.13 115.11 67.28 115.13 67.3 121.42 61.01 127.88 67.47 128.08 67.28 125.93 65.13 128.08 62.99"/>
        <polygon class="cls-2" points="125.93 65.13 128.08 67.28 128.09 67.3 132.62 62.77 132.62 58.44 128.08 62.99 125.93 65.13"/>
        <polygon class="cls-2" points="121.38 47.87 121.19 48.06 123.34 50.2 121.19 52.35 127.68 58.83 132.62 53.88 132.62 49.56 127.85 54.33 121.38 47.87"/>
        <polygon class="cls-2" points="121.19 48.06 121.17 48.04 114.89 54.33 108.42 47.87 108.23 48.06 110.38 50.2 108.23 52.35 114.71 58.83 121.19 52.35 123.34 50.2 121.19 48.06"/>
        <polygon class="cls-2" points="108.23 48.06 108.21 48.04 101.92 54.33 95.46 47.87 95.27 48.06 97.42 50.2 95.27 52.35 101.75 58.83 108.23 52.35 110.38 50.2 108.23 48.06"/>
        <polygon class="cls-2" points="95.27 48.06 95.25 48.04 88.96 54.33 82.5 47.87 82.31 48.06 84.46 50.2 82.31 52.35 88.79 58.83 95.27 52.35 97.42 50.2 95.27 48.06"/>
        <polygon class="cls-2" points="82.31 48.06 82.29 48.04 76 54.33 69.54 47.87 69.35 48.06 71.5 50.2 69.35 52.35 75.83 58.83 82.31 52.35 84.46 50.2 82.31 48.06"/>
        <polygon class="cls-2" points="69.35 48.06 69.33 48.04 63.04 54.33 56.58 47.87 56.39 48.06 58.53 50.2 56.39 52.35 62.87 58.83 69.35 52.35 71.5 50.2 69.35 48.06"/>
        <polygon class="cls-2" points="56.39 48.06 56.37 48.04 50.08 54.33 43.62 47.87 43.43 48.06 45.57 50.2 43.43 52.35 49.91 58.83 56.39 52.35 58.53 50.2 56.39 48.06"/>
        <polygon class="cls-2" points="43.43 48.06 43.41 48.04 37.12 54.33 30.66 47.87 30.47 48.06 32.61 50.2 30.47 52.35 36.95 58.83 43.43 52.35 45.57 50.2 43.43 48.06"/>
        <polygon class="cls-2" points="30.47 48.06 30.45 48.04 24.16 54.33 17.7 47.87 17.51 48.06 19.65 50.2 17.51 52.35 23.99 58.83 30.47 52.35 32.61 50.2 30.47 48.06"/>
        <polygon class="cls-2" points="17.51 48.06 17.49 48.04 11.2 54.33 4.74 47.87 4.55 48.06 6.69 50.2 4.55 52.35 11.03 58.83 17.51 52.35 19.65 50.2 17.51 48.06"/>
        <polygon class="cls-2" points="6.69 50.2 4.55 48.06 4.53 48.04 0 52.57 0 56.9 4.55 52.35 6.69 50.2"/>
        <polygon class="cls-2" points="11.24 76.11 11.43 75.92 9.28 73.78 11.43 71.63 4.95 65.15 0 70.09 0 74.42 4.77 69.65 11.24 76.11"/>
        <polygon class="cls-2" points="24.39 71.63 17.91 65.15 11.43 71.63 9.28 73.78 11.43 75.92 11.45 75.94 17.74 69.65 24.2 76.11 24.39 75.92 22.24 73.78 24.39 71.63"/>
        <polygon class="cls-2" points="37.35 71.63 30.87 65.15 24.39 71.63 22.24 73.78 24.39 75.92 24.41 75.94 30.7 69.65 37.16 76.11 37.35 75.92 35.2 73.78 37.35 71.63"/>
        <polygon class="cls-2" points="50.31 71.63 43.83 65.15 37.35 71.63 35.2 73.78 37.35 75.92 37.37 75.94 43.66 69.65 50.12 76.11 50.31 75.92 48.16 73.78 50.31 71.63"/>
        <polygon class="cls-2" points="63.27 71.63 56.79 65.15 50.31 71.63 48.16 73.78 50.31 75.92 50.33 75.94 56.62 69.65 63.08 76.11 63.27 75.92 61.12 73.78 63.27 71.63"/>
        <polygon class="cls-2" points="76.23 71.63 69.75 65.15 63.27 71.63 61.12 73.78 63.27 75.92 63.29 75.94 69.58 69.65 76.04 76.11 76.23 75.92 74.09 73.78 76.23 71.63"/>
        <polygon class="cls-2" points="89.19 71.63 82.71 65.15 76.23 71.63 74.09 73.78 76.23 75.92 76.25 75.94 82.54 69.65 89 76.11 89.19 75.92 87.05 73.78 89.19 71.63"/>
        <polygon class="cls-2" points="102.15 71.63 95.67 65.15 89.19 71.63 87.05 73.78 89.19 75.92 89.21 75.94 95.5 69.65 101.96 76.11 102.15 75.92 100.01 73.78 102.15 71.63"/>
        <polygon class="cls-2" points="115.11 71.63 108.63 65.15 102.15 71.63 100.01 73.78 102.15 75.92 102.17 75.94 108.46 69.65 114.92 76.11 115.11 75.92 112.97 73.78 115.11 71.63"/>
        <polygon class="cls-2" points="128.08 71.63 121.59 65.15 115.11 71.63 112.97 73.78 115.11 75.92 115.13 75.94 121.42 69.65 127.88 76.11 128.08 75.92 125.93 73.78 128.08 71.63"/>
        <polygon class="cls-2" points="125.93 73.78 128.08 75.92 128.09 75.94 132.62 71.41 132.62 67.08 128.08 71.63 125.93 73.78"/>
        <polygon class="cls-2" points="11.24 93.39 11.43 93.2 9.28 91.06 11.43 88.91 4.95 82.43 0 87.38 0 91.71 4.77 86.93 11.24 93.39"/>
        <polygon class="cls-2" points="24.39 88.91 17.91 82.43 11.43 88.91 9.28 91.06 11.43 93.2 11.45 93.22 17.74 86.93 24.2 93.39 24.39 93.2 22.24 91.06 24.39 88.91"/>
        <polygon class="cls-2" points="37.35 88.91 30.87 82.43 24.39 88.91 22.24 91.06 24.39 93.2 24.41 93.22 30.7 86.93 37.16 93.39 37.35 93.2 35.2 91.06 37.35 88.91"/>
        <polygon class="cls-2" points="50.31 88.91 43.83 82.43 37.35 88.91 35.2 91.06 37.35 93.2 37.37 93.22 43.66 86.93 50.12 93.39 50.31 93.2 48.16 91.06 50.31 88.91"/>
        <polygon class="cls-2" points="63.27 88.91 56.79 82.43 50.31 88.91 48.16 91.06 50.31 93.2 50.33 93.22 56.62 86.93 63.08 93.39 63.27 93.2 61.12 91.06 63.27 88.91"/>
        <polygon class="cls-2" points="76.23 88.91 69.75 82.43 63.27 88.91 61.12 91.06 63.27 93.2 63.29 93.22 69.58 86.93 76.04 93.39 76.23 93.2 74.09 91.06 76.23 88.91"/>
        <polygon class="cls-2" points="89.19 88.91 82.71 82.43 76.23 88.91 74.09 91.06 76.23 93.2 76.25 93.22 82.54 86.93 89 93.39 89.19 93.2 87.05 91.06 89.19 88.91"/>
        <polygon class="cls-2" points="102.15 88.91 95.67 82.43 89.19 88.91 87.05 91.06 89.19 93.2 89.21 93.22 95.5 86.93 101.96 93.39 102.15 93.2 100.01 91.06 102.15 88.91"/>
        <polygon class="cls-2" points="115.11 88.91 108.63 82.43 102.15 88.91 100.01 91.06 102.15 93.2 102.17 93.22 108.46 86.93 114.92 93.39 115.11 93.2 112.97 91.06 115.11 88.91"/>
        <polygon class="cls-2" points="128.08 88.91 121.59 82.43 115.11 88.91 112.97 91.06 115.11 93.2 115.13 93.22 121.42 86.93 127.88 93.39 128.08 93.2 125.93 91.06 128.08 88.91"/>
        <polygon class="cls-2" points="125.93 91.06 128.08 93.2 128.09 93.22 132.62 88.69 132.62 84.37 128.08 88.91 125.93 91.06"/>
        <polygon class="cls-2" points="121.38 73.79 121.19 73.98 123.34 76.13 121.19 78.27 127.68 84.75 132.62 79.81 132.62 75.48 127.85 80.25 121.38 73.79"/>
        <polygon class="cls-2" points="121.19 73.98 121.17 73.96 114.89 80.25 108.42 73.79 108.23 73.98 110.38 76.13 108.23 78.27 114.71 84.75 121.19 78.27 123.34 76.13 121.19 73.98"/>
        <polygon class="cls-2" points="108.23 73.98 108.21 73.96 101.92 80.25 95.46 73.79 95.27 73.98 97.42 76.13 95.27 78.27 101.75 84.75 108.23 78.27 110.38 76.13 108.23 73.98"/>
        <polygon class="cls-2" points="95.27 73.98 95.25 73.96 88.96 80.25 82.5 73.79 82.31 73.98 84.46 76.13 82.31 78.27 88.79 84.75 95.27 78.27 97.42 76.13 95.27 73.98"/>
        <polygon class="cls-2" points="82.31 73.98 82.29 73.96 76 80.25 69.54 73.79 69.35 73.98 71.5 76.13 69.35 78.27 75.83 84.75 82.31 78.27 84.46 76.13 82.31 73.98"/>
        <polygon class="cls-2" points="69.35 73.98 69.33 73.96 63.04 80.25 56.58 73.79 56.39 73.98 58.53 76.13 56.39 78.27 62.87 84.75 69.35 78.27 71.5 76.13 69.35 73.98"/>
        <polygon class="cls-2" points="56.39 73.98 56.37 73.96 50.08 80.25 43.62 73.79 43.43 73.98 45.57 76.13 43.43 78.27 49.91 84.75 56.39 78.27 58.53 76.13 56.39 73.98"/>
        <polygon class="cls-2" points="43.43 73.98 43.41 73.96 37.12 80.25 30.66 73.79 30.47 73.98 32.61 76.13 30.47 78.27 36.95 84.75 43.43 78.27 45.57 76.13 43.43 73.98"/>
        <polygon class="cls-2" points="30.47 73.98 30.45 73.96 24.16 80.25 17.7 73.79 17.51 73.98 19.65 76.13 17.51 78.27 23.99 84.75 30.47 78.27 32.61 76.13 30.47 73.98"/>
        <polygon class="cls-2" points="17.51 73.98 17.49 73.96 11.2 80.25 4.74 73.79 4.55 73.98 6.69 76.13 4.55 78.27 11.03 84.75 17.51 78.27 19.65 76.13 17.51 73.98"/>
        <polygon class="cls-2" points="6.69 76.13 4.55 73.98 4.53 73.96 0 78.49 0 82.82 4.55 78.27 6.69 76.13"/>
        <polygon class="cls-2" points="11.24 102.03 11.43 101.84 9.28 99.7 11.43 97.55 4.95 91.07 0 96.02 0 100.35 4.77 95.57 11.24 102.03"/>
        <polygon class="cls-2" points="24.39 97.55 17.91 91.07 11.43 97.55 9.28 99.7 11.43 101.84 11.45 101.86 17.74 95.57 24.2 102.03 24.39 101.84 22.24 99.7 24.39 97.55"/>
        <polygon class="cls-2" points="37.35 97.55 30.87 91.07 24.39 97.55 22.24 99.7 24.39 101.84 24.41 101.86 30.7 95.57 37.16 102.03 37.35 101.84 35.2 99.7 37.35 97.55"/>
        <polygon class="cls-2" points="50.31 97.55 43.83 91.07 37.35 97.55 35.2 99.7 37.35 101.84 37.37 101.86 43.66 95.57 50.12 102.03 50.31 101.84 48.16 99.7 50.31 97.55"/>
        <polygon class="cls-2" points="63.27 97.55 56.79 91.07 50.31 97.55 48.16 99.7 50.31 101.84 50.33 101.86 56.62 95.57 63.08 102.03 63.27 101.84 61.12 99.7 63.27 97.55"/>
        <polygon class="cls-2" points="76.23 97.55 69.75 91.07 63.27 97.55 61.12 99.7 63.27 101.84 63.29 101.86 69.58 95.57 76.04 102.03 76.23 101.84 74.09 99.7 76.23 97.55"/>
        <polygon class="cls-2" points="89.19 97.55 82.71 91.07 76.23 97.55 74.09 99.7 76.23 101.84 76.25 101.86 82.54 95.57 89 102.03 89.19 101.84 87.05 99.7 89.19 97.55"/>
        <polygon class="cls-2" points="102.15 97.55 95.67 91.07 89.19 97.55 87.05 99.7 89.19 101.84 89.21 101.86 95.5 95.57 101.96 102.03 102.15 101.84 100.01 99.7 102.15 97.55"/>
        <polygon class="cls-2" points="115.11 97.55 108.63 91.07 102.15 97.55 100.01 99.7 102.15 101.84 102.17 101.86 108.46 95.57 114.92 102.03 115.11 101.84 112.97 99.7 115.11 97.55"/>
        <polygon class="cls-2" points="128.08 97.55 121.59 91.07 115.11 97.55 112.97 99.7 115.11 101.84 115.13 101.86 121.42 95.57 127.88 102.03 128.08 101.84 125.93 99.7 128.08 97.55"/>
        <polygon class="cls-2" points="125.93 99.7 128.08 101.84 128.09 101.86 132.62 97.33 132.62 93.01 128.08 97.55 125.93 99.7"/>
        <polygon class="cls-2" points="11.24 119.32 11.43 119.12 9.28 116.98 11.43 114.83 4.95 108.35 0 113.3 0 117.63 4.77 112.85 11.24 119.32"/>
        <polygon class="cls-2" points="24.39 114.83 17.91 108.35 11.43 114.83 9.28 116.98 11.43 119.12 11.45 119.14 17.74 112.85 24.2 119.32 24.39 119.12 22.24 116.98 24.39 114.83"/>
        <polygon class="cls-2" points="37.35 114.83 30.87 108.35 24.39 114.83 22.24 116.98 24.39 119.12 24.41 119.14 30.7 112.85 37.16 119.32 37.35 119.12 35.2 116.98 37.35 114.83"/>
        <polygon class="cls-2" points="50.31 114.83 43.83 108.35 37.35 114.83 35.2 116.98 37.35 119.12 37.37 119.14 43.66 112.85 50.12 119.32 50.31 119.12 48.16 116.98 50.31 114.83"/>
        <polygon class="cls-2" points="63.27 114.83 56.79 108.35 50.31 114.83 48.16 116.98 50.31 119.12 50.33 119.14 56.62 112.85 63.08 119.32 63.27 119.12 61.12 116.98 63.27 114.83"/>
        <polygon class="cls-2" points="76.23 114.83 69.75 108.35 63.27 114.83 61.12 116.98 63.27 119.12 63.29 119.14 69.58 112.85 76.04 119.32 76.23 119.12 74.09 116.98 76.23 114.83"/>
        <polygon class="cls-2" points="89.19 114.83 82.71 108.35 76.23 114.83 74.09 116.98 76.23 119.12 76.25 119.14 82.54 112.85 89 119.32 89.19 119.12 87.05 116.98 89.19 114.83"/>
        <polygon class="cls-2" points="102.15 114.83 95.67 108.35 89.19 114.83 87.05 116.98 89.19 119.12 89.21 119.14 95.5 112.85 101.96 119.32 102.15 119.12 100.01 116.98 102.15 114.83"/>
        <polygon class="cls-2" points="115.11 114.83 108.63 108.35 102.15 114.83 100.01 116.98 102.15 119.12 102.17 119.14 108.46 112.85 114.92 119.32 115.11 119.12 112.97 116.98 115.11 114.83"/>
        <polygon class="cls-2" points="128.08 114.83 121.59 108.35 115.11 114.83 112.97 116.98 115.11 119.12 115.13 119.14 121.42 112.85 127.88 119.32 128.08 119.12 125.93 116.98 128.08 114.83"/>
        <polygon class="cls-2" points="125.93 116.98 128.08 119.12 128.09 119.14 132.62 114.62 132.62 110.29 128.08 114.83 125.93 116.98"/>
        <polygon class="cls-2" points="121.38 99.71 121.19 99.9 123.34 102.05 121.19 104.19 127.68 110.67 132.62 105.73 132.62 101.4 127.85 106.17 121.38 99.71"/>
        <polygon class="cls-2" points="121.19 99.9 121.17 99.88 114.89 106.17 108.42 99.71 108.23 99.9 110.38 102.05 108.23 104.19 114.71 110.67 121.19 104.19 123.34 102.05 121.19 99.9"/>
        <polygon class="cls-2" points="108.23 99.9 108.21 99.88 101.92 106.17 95.46 99.71 95.27 99.9 97.42 102.05 95.27 104.19 101.75 110.67 108.23 104.19 110.38 102.05 108.23 99.9"/>
        <polygon class="cls-2" points="95.27 99.9 95.25 99.88 88.96 106.17 82.5 99.71 82.31 99.9 84.46 102.05 82.31 104.19 88.79 110.67 95.27 104.19 97.42 102.05 95.27 99.9"/>
        <polygon class="cls-2" points="82.31 99.9 82.29 99.88 76 106.17 69.54 99.71 69.35 99.9 71.5 102.05 69.35 104.19 75.83 110.67 82.31 104.19 84.46 102.05 82.31 99.9"/>
        <polygon class="cls-2" points="69.35 99.9 69.33 99.88 63.04 106.17 56.58 99.71 56.39 99.9 58.53 102.05 56.39 104.19 62.87 110.67 69.35 104.19 71.5 102.05 69.35 99.9"/>
        <polygon class="cls-2" points="56.39 99.9 56.37 99.88 50.08 106.17 43.62 99.71 43.43 99.9 45.57 102.05 43.43 104.19 49.91 110.67 56.39 104.19 58.53 102.05 56.39 99.9"/>
        <polygon class="cls-2" points="43.43 99.9 43.41 99.88 37.12 106.17 30.66 99.71 30.47 99.9 32.61 102.05 30.47 104.19 36.95 110.67 43.43 104.19 45.57 102.05 43.43 99.9"/>
        <polygon class="cls-2" points="30.47 99.9 30.45 99.88 24.16 106.17 17.7 99.71 17.51 99.9 19.65 102.05 17.51 104.19 23.99 110.67 30.47 104.19 32.61 102.05 30.47 99.9"/>
        <polygon class="cls-2" points="17.51 99.9 17.49 99.88 11.2 106.17 4.74 99.71 4.55 99.9 6.69 102.05 4.55 104.19 11.03 110.67 17.51 104.19 19.65 102.05 17.51 99.9"/>
        <polygon class="cls-2" points="6.69 102.05 4.55 99.9 4.53 99.88 0 104.41 0 108.74 4.55 104.19 6.69 102.05"/>
        <polygon class="cls-2" points="11.24 127.96 11.43 127.76 9.28 125.62 11.43 123.47 4.95 116.99 0 121.94 0 126.27 4.77 121.49 11.24 127.96"/>
        <polygon class="cls-2" points="24.39 123.47 17.91 116.99 11.43 123.47 9.28 125.62 11.43 127.76 11.45 127.78 17.74 121.49 24.2 127.96 24.39 127.76 22.24 125.62 24.39 123.47"/>
        <polygon class="cls-2" points="37.35 123.47 30.87 116.99 24.39 123.47 22.24 125.62 24.39 127.76 24.41 127.78 30.7 121.49 37.16 127.96 37.35 127.76 35.2 125.62 37.35 123.47"/>
        <polygon class="cls-2" points="50.31 123.47 43.83 116.99 37.35 123.47 35.2 125.62 37.35 127.76 37.37 127.78 43.66 121.49 50.12 127.96 50.31 127.76 48.16 125.62 50.31 123.47"/>
        <polygon class="cls-2" points="63.27 123.47 56.79 116.99 50.31 123.47 48.16 125.62 50.31 127.76 50.33 127.78 56.62 121.49 63.08 127.96 63.27 127.76 61.12 125.62 63.27 123.47"/>
        <polygon class="cls-2" points="76.23 123.47 69.75 116.99 63.27 123.47 61.12 125.62 63.27 127.76 63.29 127.78 69.58 121.49 76.04 127.96 76.23 127.76 74.09 125.62 76.23 123.47"/>
        <polygon class="cls-2" points="89.19 123.47 82.71 116.99 76.23 123.47 74.09 125.62 76.23 127.76 76.25 127.78 82.54 121.49 89 127.96 89.19 127.76 87.05 125.62 89.19 123.47"/>
        <polygon class="cls-2" points="102.15 123.47 95.67 116.99 89.19 123.47 87.05 125.62 89.19 127.76 89.21 127.78 95.5 121.49 101.96 127.96 102.15 127.76 100.01 125.62 102.15 123.47"/>
        <polygon class="cls-2" points="115.11 123.47 108.63 116.99 102.15 123.47 100.01 125.62 102.15 127.76 102.17 127.78 108.46 121.49 114.92 127.96 115.11 127.76 112.97 125.62 115.11 123.47"/>
        <polygon class="cls-2" points="128.08 123.47 121.59 116.99 115.11 123.47 112.97 125.62 115.11 127.76 115.13 127.78 121.42 121.49 127.88 127.96 128.08 127.76 125.93 125.62 128.08 123.47"/>
        <polygon class="cls-2" points="125.93 125.62 128.08 127.76 128.09 127.78 132.62 123.26 132.62 118.93 128.08 123.47 125.93 125.62"/>
        <polygon class="cls-2" points="132.62 127.32 127.85 132.1 121.38 125.63 121.19 125.82 123.34 127.97 121.19 130.12 123.7 132.62 131.65 132.62 132.62 131.65 132.62 127.32"/>
        <polygon class="cls-2" points="123.34 127.97 121.19 125.82 121.17 125.81 114.89 132.1 108.42 125.63 108.23 125.82 110.38 127.97 108.23 130.12 110.74 132.62 118.69 132.62 121.19 130.12 123.34 127.97"/>
        <polygon class="cls-2" points="110.38 127.97 108.23 125.82 108.21 125.81 101.92 132.1 95.46 125.63 95.27 125.82 97.42 127.97 95.27 130.12 97.78 132.62 105.73 132.62 108.23 130.12 110.38 127.97"/>
        <polygon class="cls-2" points="97.42 127.97 95.27 125.82 95.25 125.81 88.96 132.1 82.5 125.63 82.31 125.82 84.46 127.97 82.31 130.12 84.82 132.62 92.77 132.62 95.27 130.12 97.42 127.97"/>
        <polygon class="cls-2" points="84.46 127.97 82.31 125.82 82.29 125.81 76 132.1 69.54 125.63 69.35 125.82 71.5 127.97 69.35 130.12 71.86 132.62 79.81 132.62 82.31 130.12 84.46 127.97"/>
        <polygon class="cls-2" points="71.5 127.97 69.35 125.82 69.33 125.81 63.04 132.1 56.58 125.63 56.39 125.82 58.53 127.97 56.39 130.12 58.9 132.62 66.84 132.62 69.35 130.12 71.5 127.97"/>
        <polygon class="cls-2" points="58.53 127.97 56.39 125.82 56.37 125.81 50.08 132.1 43.62 125.63 43.43 125.82 45.57 127.97 43.43 130.12 45.93 132.62 53.88 132.62 56.39 130.12 58.53 127.97"/>
        <polygon class="cls-2" points="45.57 127.97 43.43 125.82 43.41 125.81 37.12 132.1 30.66 125.63 30.47 125.82 32.61 127.97 30.47 130.12 32.97 132.62 40.92 132.62 43.43 130.12 45.57 127.97"/>
        <polygon class="cls-2" points="32.61 127.97 30.47 125.82 30.45 125.81 24.16 132.1 17.7 125.63 17.51 125.82 19.65 127.97 17.51 130.12 20.01 132.62 27.96 132.62 30.47 130.12 32.61 127.97"/>
        <polygon class="cls-2" points="19.65 127.97 17.51 125.82 17.49 125.81 11.2 132.1 4.74 125.63 4.55 125.82 6.69 127.97 4.55 130.12 7.05 132.62 15 132.62 17.51 130.12 19.65 127.97"/>
        <polygon class="cls-2" points="6.69 127.97 4.55 125.82 4.53 125.81 0 130.33 0 132.62 2.04 132.62 4.55 130.12 6.69 127.97"/>
      </g>
    </g>
  </g>
</svg>